<svg width="83" height="73" viewBox="0 0 83 73" fill="none" xmlns="http://www.w3.org/2000/svg">
<path d="M5.5 72.6L39 -8.7H34.4L0.9 72.6H5.5ZM81.7461 58.6C77.4461 62.7 73.4461 64.1 69.1461 64.1C58.4461 64.1 50.8461 55.4 50.8461 41.3C50.8461 39.7 50.9461 38.8 50.9461 38.8H82.2461C82.2461 26 72.8461 20 63.3461 20C51.0461 20 40.6461 30 40.6461 44.4C40.6461 58.4 50.3461 69 64.3461 69C72.3461 69 78.0461 65.6 82.4461 59.5L81.7461 58.6ZM51.2461 36.2C52.4461 28.3 56.6461 22 62.9461 22C68.3461 22 71.8461 26.7 72.0461 36.2H51.2461Z" fill="#654B96"/>
</svg>
