<?xml version="1.0" encoding="UTF-8"?><svg id="Layer_6" xmlns="http://www.w3.org/2000/svg" viewBox="0 0 750 800.1"><defs><style>.cls-1{fill:#cdff7c;}</style></defs><path class="cls-1" d="M0,.03V800.03H750V.03H0ZM700,748.53H50V48.53H700V748.53Z"/><g><g><path d="M90.23,30.68V10.1h7.68c2.16,0,4,.36,5.52,1.08,1.52,.72,2.68,1.83,3.5,3.35,.81,1.51,1.21,3.46,1.21,5.86s-.41,4.3-1.21,5.82c-.81,1.52-1.98,2.65-3.5,3.38-1.52,.73-3.36,1.1-5.52,1.1h-7.68Zm2.85-2.46h4.77c1.14,0,2.16-.15,3.06-.44,.9-.29,1.67-.73,2.31-1.33,.64-.6,1.12-1.38,1.46-2.33,.33-.95,.49-2.08,.49-3.4v-.6c0-1.36-.16-2.51-.49-3.46-.33-.95-.81-1.73-1.44-2.33s-1.39-1.04-2.29-1.33c-.9-.29-1.93-.44-3.09-.44h-4.77v15.66Z"/><path d="M111.74,11.93v-2.94h2.64v2.94h-2.64Zm0,18.75V14.9h2.64v15.78h-2.64Z"/><path d="M121.16,36.14c-.76,0-1.46-.16-2.1-.46-.64-.31-1.15-.76-1.53-1.33-.38-.58-.57-1.27-.57-2.07,0-.88,.25-1.61,.74-2.19,.49-.58,1.07-1.01,1.75-1.29-.5-.24-.89-.57-1.17-1-.28-.43-.42-.9-.42-1.42,0-.7,.25-1.29,.76-1.77s1.13-.8,1.88-.96c-.68-.44-1.21-1.01-1.61-1.7-.39-.69-.58-1.46-.58-2.29,0-1,.24-1.88,.71-2.64,.47-.76,1.19-1.36,2.16-1.8s2.16-.66,3.55-.66c.64,0,1.24,.04,1.8,.14,.56,.09,1.06,.24,1.5,.44,.7-.32,1.22-.73,1.57-1.23,.35-.5,.57-1.01,.65-1.53h2.61c0,.6-.14,1.17-.41,1.7-.27,.53-.64,.97-1.09,1.32-.46,.35-1.02,.58-1.68,.71,.5,.48,.88,1.02,1.12,1.62,.25,.6,.38,1.25,.38,1.95,0,1-.24,1.89-.71,2.66s-1.17,1.38-2.11,1.81c-.94,.44-2.12,.66-3.54,.66h-2.46c-.54,0-.98,.1-1.32,.31-.34,.21-.51,.55-.51,1.01,0,.4,.17,.73,.51,.97,.34,.25,.78,.38,1.32,.38h6.42c1.16,0,2.11,.39,2.85,1.16,.74,.77,1.11,1.75,1.11,2.96,0,.86-.22,1.63-.65,2.32s-1.03,1.24-1.8,1.65c-.77,.41-1.67,.61-2.68,.61h-6.45Zm.75-2.01h5.67c.46,0,.88-.1,1.26-.29,.38-.19,.68-.46,.9-.79,.22-.34,.33-.71,.33-1.11,0-.68-.2-1.22-.6-1.62s-.9-.6-1.5-.6h-6.06c-.64,0-1.18,.22-1.62,.65-.44,.43-.66,.95-.66,1.57,0,.66,.22,1.19,.66,1.59,.44,.4,.98,.6,1.62,.6Zm2.85-11.34c1.28,0,2.23-.28,2.85-.84,.62-.56,.93-1.33,.93-2.31s-.31-1.72-.93-2.28c-.62-.56-1.57-.84-2.85-.84s-2.23,.28-2.87,.84c-.63,.56-.94,1.32-.94,2.28,0,.62,.14,1.17,.42,1.65,.28,.48,.7,.85,1.26,1.11,.56,.26,1.27,.39,2.13,.39Z"/><path d="M135.17,11.93v-2.94h2.64v2.94h-2.64Zm0,18.75V14.9h2.64v15.78h-2.64Z"/><path d="M145.61,31.04c-.82,0-1.46-.15-1.92-.46s-.79-.72-.99-1.23c-.2-.51-.3-1.05-.3-1.64v-10.59h-2.04v-2.22h2.1l.48-4.41h2.1v4.41h2.97v2.22h-2.97v10.2c0,.5,.09,.88,.27,1.12s.52,.38,1.02,.38h1.68v1.74c-.2,.1-.44,.18-.72,.24-.28,.06-.57,.11-.86,.17-.29,.05-.57,.07-.83,.07Z"/><path d="M154.79,31.04c-.58,0-1.16-.07-1.74-.21-.58-.14-1.12-.37-1.62-.69-.5-.32-.9-.77-1.2-1.33s-.45-1.28-.45-2.15c0-1.08,.26-1.97,.78-2.67,.52-.7,1.25-1.25,2.17-1.64,.93-.39,2.04-.66,3.32-.81,1.28-.15,2.67-.23,4.17-.23v-1.8c0-.58-.1-1.08-.3-1.5-.2-.42-.55-.74-1.07-.97-.51-.23-1.24-.35-2.17-.35s-1.62,.12-2.14,.35c-.53,.23-.9,.52-1.11,.88s-.32,.76-.32,1.2v.45h-2.55c-.02-.1-.03-.2-.03-.3v-.36c0-.96,.27-1.77,.8-2.42,.53-.65,1.27-1.14,2.23-1.47s2.06-.5,3.3-.5c1.32,0,2.42,.19,3.32,.57,.89,.38,1.56,.92,2.01,1.62,.45,.7,.67,1.54,.67,2.52v8.55c0,.38,.09,.65,.27,.79s.4,.23,.66,.23h1.17v1.74c-.28,.12-.59,.23-.93,.31-.34,.09-.73,.14-1.17,.14-.52,0-.95-.1-1.29-.31s-.6-.5-.78-.87c-.18-.37-.3-.78-.36-1.25h-.21c-.36,.5-.82,.94-1.37,1.31s-1.17,.66-1.84,.85-1.42,.3-2.22,.3Zm.66-2.22c.64,0,1.24-.1,1.81-.3,.57-.2,1.08-.48,1.51-.85,.44-.37,.79-.81,1.05-1.33,.26-.52,.39-1.09,.39-1.71v-1.32c-1.62,0-3,.09-4.14,.27-1.14,.18-2.02,.5-2.62,.96-.61,.46-.92,1.11-.92,1.95,0,.54,.12,.98,.36,1.32,.24,.34,.58,.6,1.02,.76,.44,.17,.95,.26,1.53,.26Z"/><path d="M167.18,30.68V8.99h2.64V30.68h-2.64Z"/><path d="M180.71,30.68V10.1h7.68c2.16,0,4,.36,5.52,1.08,1.52,.72,2.68,1.83,3.5,3.35,.81,1.51,1.21,3.46,1.21,5.86s-.41,4.3-1.21,5.82c-.81,1.52-1.98,2.65-3.5,3.38-1.52,.73-3.36,1.1-5.52,1.1h-7.68Zm2.85-2.46h4.77c1.14,0,2.16-.15,3.06-.44,.9-.29,1.67-.73,2.31-1.33,.64-.6,1.12-1.38,1.46-2.33,.33-.95,.49-2.08,.49-3.4v-.6c0-1.36-.16-2.51-.49-3.46-.33-.95-.81-1.73-1.44-2.33s-1.39-1.04-2.29-1.33c-.9-.29-1.93-.44-3.09-.44h-4.77v15.66Z"/><path d="M208.52,31.04c-1.56,0-2.88-.3-3.95-.88-1.07-.59-1.88-1.5-2.43-2.72-.55-1.22-.83-2.77-.83-4.65s.27-3.45,.83-4.67c.55-1.21,1.37-2.11,2.45-2.7,1.08-.59,2.43-.89,4.05-.89,1.48,0,2.72,.29,3.72,.85,1,.57,1.75,1.42,2.26,2.55,.51,1.13,.77,2.55,.77,4.24v1.26h-11.34c.04,1.26,.22,2.29,.55,3.1s.83,1.4,1.49,1.77c.66,.37,1.49,.56,2.49,.56,.68,0,1.28-.08,1.79-.26,.51-.17,.94-.41,1.29-.73,.35-.32,.62-.7,.79-1.14,.18-.44,.28-.92,.3-1.44h2.58c-.02,.84-.18,1.62-.48,2.33s-.74,1.32-1.32,1.81c-.58,.5-1.29,.89-2.13,1.17s-1.8,.42-2.88,.42Zm-4.41-9.57h8.55c0-.88-.1-1.62-.3-2.22-.2-.6-.49-1.09-.85-1.47-.37-.38-.8-.65-1.29-.83-.49-.17-1.05-.25-1.67-.25-.92,0-1.7,.17-2.34,.51-.64,.34-1.13,.86-1.47,1.56-.34,.7-.55,1.6-.63,2.7Z"/><path d="M224.17,31.04c-1.08,0-2.03-.11-2.85-.33-.82-.22-1.5-.54-2.04-.96-.54-.42-.95-.92-1.23-1.5-.28-.58-.42-1.24-.42-1.98v-.28c0-.09,0-.17,.03-.23h2.61c-.02,.08-.03,.15-.03,.21v.18c.02,.7,.21,1.25,.55,1.65,.35,.4,.83,.68,1.46,.84,.62,.16,1.31,.24,2.07,.24,.66,0,1.27-.08,1.83-.26,.56-.17,1-.43,1.33-.78,.33-.35,.5-.79,.5-1.33,0-.66-.22-1.17-.65-1.52-.43-.35-1-.62-1.7-.82s-1.43-.41-2.19-.63c-.64-.18-1.28-.38-1.92-.6-.64-.22-1.21-.49-1.73-.81-.51-.32-.92-.74-1.23-1.25-.31-.51-.46-1.16-.46-1.94,0-.7,.14-1.32,.43-1.86s.71-1,1.25-1.38c.54-.38,1.2-.66,1.96-.85,.77-.19,1.62-.28,2.57-.28,1,0,1.88,.11,2.62,.33s1.38,.53,1.88,.93c.5,.4,.87,.85,1.11,1.37,.24,.51,.36,1.06,.36,1.63v.35c0,.11-.01,.19-.03,.25h-2.58v-.33c0-.4-.1-.78-.31-1.15s-.57-.67-1.08-.9-1.21-.35-2.12-.35c-.58,0-1.08,.04-1.5,.13-.42,.09-.77,.23-1.05,.42s-.49,.41-.63,.66c-.14,.25-.21,.54-.21,.85,0,.52,.17,.92,.51,1.2,.34,.28,.79,.51,1.37,.69,.57,.18,1.18,.38,1.84,.6,.7,.2,1.42,.4,2.15,.61,.73,.21,1.4,.48,2.01,.8,.61,.32,1.1,.75,1.47,1.3,.37,.55,.55,1.27,.55,2.18,0,.84-.16,1.57-.48,2.19-.32,.62-.78,1.13-1.37,1.53-.59,.4-1.28,.7-2.07,.89-.79,.19-1.65,.28-2.59,.28Z"/><path d="M233.96,11.93v-2.94h2.64v2.94h-2.64Zm0,18.75V14.9h2.64v15.78h-2.64Z"/><path d="M243.38,36.14c-.76,0-1.46-.16-2.1-.46-.64-.31-1.15-.76-1.53-1.33-.38-.58-.57-1.27-.57-2.07,0-.88,.25-1.61,.74-2.19,.49-.58,1.07-1.01,1.75-1.29-.5-.24-.89-.57-1.17-1-.28-.43-.42-.9-.42-1.42,0-.7,.25-1.29,.76-1.77s1.13-.8,1.88-.96c-.68-.44-1.21-1.01-1.61-1.7-.39-.69-.58-1.46-.58-2.29,0-1,.24-1.88,.71-2.64,.47-.76,1.19-1.36,2.16-1.8s2.16-.66,3.55-.66c.64,0,1.24,.04,1.8,.14,.56,.09,1.06,.24,1.5,.44,.7-.32,1.22-.73,1.57-1.23,.35-.5,.57-1.01,.65-1.53h2.61c0,.6-.14,1.17-.41,1.7-.27,.53-.64,.97-1.09,1.32-.46,.35-1.02,.58-1.68,.71,.5,.48,.88,1.02,1.12,1.62,.25,.6,.38,1.25,.38,1.95,0,1-.24,1.89-.71,2.66s-1.17,1.38-2.11,1.81c-.94,.44-2.12,.66-3.54,.66h-2.46c-.54,0-.98,.1-1.32,.31-.34,.21-.51,.55-.51,1.01,0,.4,.17,.73,.51,.97,.34,.25,.78,.38,1.32,.38h6.42c1.16,0,2.11,.39,2.85,1.16,.74,.77,1.11,1.75,1.11,2.96,0,.86-.22,1.63-.65,2.32s-1.03,1.24-1.8,1.65c-.77,.41-1.67,.61-2.68,.61h-6.45Zm.75-2.01h5.67c.46,0,.88-.1,1.26-.29,.38-.19,.68-.46,.9-.79,.22-.34,.33-.71,.33-1.11,0-.68-.2-1.22-.6-1.62s-.9-.6-1.5-.6h-6.06c-.64,0-1.18,.22-1.62,.65-.44,.43-.66,.95-.66,1.57,0,.66,.22,1.19,.66,1.59,.44,.4,.98,.6,1.62,.6Zm2.85-11.34c1.28,0,2.23-.28,2.85-.84,.62-.56,.93-1.33,.93-2.31s-.31-1.72-.93-2.28c-.62-.56-1.57-.84-2.85-.84s-2.23,.28-2.87,.84c-.63,.56-.94,1.32-.94,2.28,0,.62,.14,1.17,.42,1.65,.28,.48,.7,.85,1.26,1.11,.56,.26,1.27,.39,2.13,.39Z"/><path d="M257.38,30.68V14.9h2.13l.24,2.37h.21c.42-.64,.89-1.16,1.42-1.56,.53-.4,1.12-.69,1.77-.88,.65-.19,1.34-.29,2.08-.29,1,0,1.88,.17,2.62,.51,.75,.34,1.34,.89,1.77,1.65,.43,.76,.64,1.79,.64,3.09v10.89h-2.64v-10.53c0-.66-.08-1.2-.25-1.62s-.4-.75-.69-.99c-.29-.24-.64-.41-1.05-.51s-.87-.15-1.37-.15c-.74,0-1.44,.18-2.1,.54-.66,.36-1.19,.88-1.58,1.56-.39,.68-.58,1.49-.58,2.43v9.27h-2.64Z"/><path d="M280.57,31.04c-1.56,0-2.88-.3-3.95-.88-1.07-.59-1.88-1.5-2.43-2.72-.55-1.22-.83-2.77-.83-4.65s.27-3.45,.83-4.67c.55-1.21,1.37-2.11,2.45-2.7,1.08-.59,2.43-.89,4.05-.89,1.48,0,2.72,.29,3.72,.85,1,.57,1.75,1.42,2.26,2.55,.51,1.13,.77,2.55,.77,4.24v1.26h-11.34c.04,1.26,.22,2.29,.55,3.1s.83,1.4,1.49,1.77c.66,.37,1.49,.56,2.49,.56,.68,0,1.28-.08,1.79-.26,.51-.17,.94-.41,1.29-.73,.35-.32,.62-.7,.79-1.14,.18-.44,.28-.92,.3-1.44h2.58c-.02,.84-.18,1.62-.48,2.33s-.74,1.32-1.32,1.81c-.58,.5-1.29,.89-2.13,1.17s-1.8,.42-2.88,.42Zm-4.41-9.57h8.55c0-.88-.1-1.62-.3-2.22-.2-.6-.49-1.09-.85-1.47-.37-.38-.8-.65-1.29-.83-.49-.17-1.05-.25-1.67-.25-.92,0-1.7,.17-2.34,.51-.64,.34-1.13,.86-1.47,1.56-.34,.7-.55,1.6-.63,2.7Z"/><path d="M290.71,30.68V14.9h2.13l.24,2.61h.21c.16-.5,.38-.98,.66-1.43,.28-.45,.66-.82,1.14-1.11,.48-.29,1.07-.44,1.77-.44,.3,0,.58,.03,.83,.08,.25,.05,.44,.1,.55,.17v2.43h-.99c-.68,0-1.27,.12-1.75,.35-.49,.23-.9,.56-1.22,.98-.32,.42-.55,.92-.71,1.5-.15,.58-.22,1.2-.22,1.86v8.79h-2.64Z"/></g><g><path d="M353.23,29.68V9.1h7.68c2.16,0,4,.36,5.52,1.08,1.52,.72,2.68,1.83,3.5,3.35,.81,1.51,1.21,3.46,1.21,5.86s-.41,4.3-1.21,5.82c-.81,1.52-1.98,2.65-3.5,3.38-1.52,.73-3.36,1.1-5.52,1.1h-7.68Zm2.85-2.46h4.77c1.14,0,2.16-.15,3.06-.44,.9-.29,1.67-.73,2.31-1.33,.64-.6,1.12-1.38,1.46-2.33,.33-.95,.49-2.08,.49-3.4v-.6c0-1.36-.16-2.51-.49-3.46-.33-.95-.81-1.73-1.44-2.33s-1.39-1.04-2.29-1.33c-.9-.29-1.93-.44-3.09-.44h-4.77v15.66Z"/><path d="M374.74,10.93v-2.94h2.64v2.94h-2.64Zm0,18.75V13.9h2.64v15.78h-2.64Z"/><path d="M384.16,35.14c-.76,0-1.46-.16-2.1-.46-.64-.31-1.15-.76-1.53-1.33-.38-.58-.57-1.27-.57-2.07,0-.88,.25-1.61,.74-2.19,.49-.58,1.07-1.01,1.75-1.29-.5-.24-.89-.57-1.17-1-.28-.43-.42-.9-.42-1.42,0-.7,.25-1.29,.76-1.77s1.13-.8,1.88-.96c-.68-.44-1.21-1.01-1.61-1.7-.39-.69-.58-1.46-.58-2.29,0-1,.24-1.88,.71-2.64,.47-.76,1.19-1.36,2.16-1.8s2.16-.66,3.55-.66c.64,0,1.24,.04,1.8,.14,.56,.09,1.06,.24,1.5,.44,.7-.32,1.22-.73,1.57-1.23,.35-.5,.57-1.01,.65-1.53h2.61c0,.6-.14,1.17-.41,1.7-.27,.53-.64,.97-1.09,1.32-.46,.35-1.02,.58-1.68,.71,.5,.48,.88,1.02,1.12,1.62,.25,.6,.38,1.25,.38,1.95,0,1-.24,1.89-.71,2.66s-1.17,1.38-2.11,1.81c-.94,.44-2.12,.66-3.54,.66h-2.46c-.54,0-.98,.1-1.32,.31-.34,.21-.51,.55-.51,1.01,0,.4,.17,.73,.51,.97,.34,.25,.78,.38,1.32,.38h6.42c1.16,0,2.11,.39,2.85,1.16,.74,.77,1.11,1.75,1.11,2.96,0,.86-.22,1.63-.65,2.32s-1.03,1.24-1.8,1.65c-.77,.41-1.67,.61-2.68,.61h-6.45Zm.75-2.01h5.67c.46,0,.88-.1,1.26-.29,.38-.19,.68-.46,.9-.79,.22-.34,.33-.71,.33-1.11,0-.68-.2-1.22-.6-1.62s-.9-.6-1.5-.6h-6.06c-.64,0-1.18,.22-1.62,.65-.44,.43-.66,.95-.66,1.57,0,.66,.22,1.19,.66,1.59,.44,.4,.98,.6,1.62,.6Zm2.85-11.34c1.28,0,2.23-.28,2.85-.84,.62-.56,.93-1.33,.93-2.31s-.31-1.72-.93-2.28c-.62-.56-1.57-.84-2.85-.84s-2.23,.28-2.87,.84c-.63,.56-.94,1.32-.94,2.28,0,.62,.14,1.17,.42,1.65,.28,.48,.7,.85,1.26,1.11,.56,.26,1.27,.39,2.13,.39Z"/><path d="M398.17,10.93v-2.94h2.64v2.94h-2.64Zm0,18.75V13.9h2.64v15.78h-2.64Z"/><path d="M408.61,30.04c-.82,0-1.46-.15-1.92-.46s-.79-.72-.99-1.23c-.2-.51-.3-1.05-.3-1.64v-10.59h-2.04v-2.22h2.1l.48-4.41h2.1v4.41h2.97v2.22h-2.97v10.2c0,.5,.09,.88,.27,1.12s.52,.38,1.02,.38h1.68v1.74c-.2,.1-.44,.18-.72,.24-.28,.06-.57,.11-.86,.17-.29,.05-.57,.07-.83,.07Z"/><path d="M417.79,30.04c-.58,0-1.16-.07-1.74-.21-.58-.14-1.12-.37-1.62-.69-.5-.32-.9-.77-1.2-1.33s-.45-1.28-.45-2.15c0-1.08,.26-1.97,.78-2.67,.52-.7,1.25-1.25,2.17-1.64,.93-.39,2.04-.66,3.32-.81,1.28-.15,2.67-.23,4.17-.23v-1.8c0-.58-.1-1.08-.3-1.5-.2-.42-.55-.74-1.07-.97-.51-.23-1.24-.35-2.17-.35s-1.62,.12-2.14,.35c-.53,.23-.9,.52-1.11,.88s-.32,.76-.32,1.2v.45h-2.55c-.02-.1-.03-.2-.03-.3v-.36c0-.96,.27-1.77,.8-2.42,.53-.65,1.27-1.14,2.23-1.47s2.06-.5,3.3-.5c1.32,0,2.42,.19,3.32,.57,.89,.38,1.56,.92,2.01,1.62,.45,.7,.67,1.54,.67,2.52v8.55c0,.38,.09,.65,.27,.79s.4,.23,.66,.23h1.17v1.74c-.28,.12-.59,.23-.93,.31-.34,.09-.73,.14-1.17,.14-.52,0-.95-.1-1.29-.31s-.6-.5-.78-.87c-.18-.37-.3-.78-.36-1.25h-.21c-.36,.5-.82,.94-1.37,1.31s-1.17,.66-1.84,.85-1.42,.3-2.22,.3Zm.66-2.22c.64,0,1.24-.1,1.81-.3,.57-.2,1.08-.48,1.51-.85,.44-.37,.79-.81,1.05-1.33,.26-.52,.39-1.09,.39-1.71v-1.32c-1.62,0-3,.09-4.14,.27-1.14,.18-2.02,.5-2.62,.96-.61,.46-.92,1.11-.92,1.95,0,.54,.12,.98,.36,1.32,.24,.34,.58,.6,1.02,.76,.44,.17,.95,.26,1.53,.26Z"/><path d="M430.18,29.68V7.99h2.64V29.68h-2.64Z"/><path d="M443.71,29.68V9.1h7.68c2.16,0,4,.36,5.52,1.08,1.52,.72,2.68,1.83,3.5,3.35,.81,1.51,1.21,3.46,1.21,5.86s-.41,4.3-1.21,5.82c-.81,1.52-1.98,2.65-3.5,3.38-1.52,.73-3.36,1.1-5.52,1.1h-7.68Zm2.85-2.46h4.77c1.14,0,2.16-.15,3.06-.44,.9-.29,1.67-.73,2.31-1.33,.64-.6,1.12-1.38,1.46-2.33,.33-.95,.49-2.08,.49-3.4v-.6c0-1.36-.16-2.51-.49-3.46-.33-.95-.81-1.73-1.44-2.33s-1.39-1.04-2.29-1.33c-.9-.29-1.93-.44-3.09-.44h-4.77v15.66Z"/><path d="M471.52,30.04c-1.56,0-2.88-.3-3.95-.88-1.07-.59-1.88-1.5-2.43-2.72-.55-1.22-.83-2.77-.83-4.65s.27-3.45,.83-4.67c.55-1.21,1.37-2.11,2.45-2.7,1.08-.59,2.43-.89,4.05-.89,1.48,0,2.72,.29,3.72,.85,1,.57,1.75,1.42,2.26,2.55,.51,1.13,.77,2.55,.77,4.24v1.26h-11.34c.04,1.26,.22,2.29,.55,3.1s.83,1.4,1.49,1.77c.66,.37,1.49,.56,2.49,.56,.68,0,1.28-.08,1.79-.26,.51-.17,.94-.41,1.29-.73,.35-.32,.62-.7,.79-1.14,.18-.44,.28-.92,.3-1.44h2.58c-.02,.84-.18,1.62-.48,2.33s-.74,1.32-1.32,1.81c-.58,.5-1.29,.89-2.13,1.17s-1.8,.42-2.88,.42Zm-4.41-9.57h8.55c0-.88-.1-1.62-.3-2.22-.2-.6-.49-1.09-.85-1.47-.37-.38-.8-.65-1.29-.83-.49-.17-1.05-.25-1.67-.25-.92,0-1.7,.17-2.34,.51-.64,.34-1.13,.86-1.47,1.56-.34,.7-.55,1.6-.63,2.7Z"/><path d="M487.17,30.04c-1.08,0-2.03-.11-2.85-.33-.82-.22-1.5-.54-2.04-.96-.54-.42-.95-.92-1.23-1.5-.28-.58-.42-1.24-.42-1.98v-.28c0-.09,0-.17,.03-.23h2.61c-.02,.08-.03,.15-.03,.21v.18c.02,.7,.21,1.25,.55,1.65,.35,.4,.83,.68,1.46,.84,.62,.16,1.31,.24,2.07,.24,.66,0,1.27-.08,1.83-.26,.56-.17,1-.43,1.33-.78,.33-.35,.5-.79,.5-1.33,0-.66-.22-1.17-.65-1.52-.43-.35-1-.62-1.7-.82s-1.43-.41-2.19-.63c-.64-.18-1.28-.38-1.92-.6-.64-.22-1.21-.49-1.73-.81-.51-.32-.92-.74-1.23-1.25-.31-.51-.46-1.16-.46-1.94,0-.7,.14-1.32,.43-1.86s.71-1,1.25-1.38c.54-.38,1.2-.66,1.96-.85,.77-.19,1.62-.28,2.57-.28,1,0,1.88,.11,2.62,.33s1.38,.53,1.88,.93c.5,.4,.87,.85,1.11,1.37,.24,.51,.36,1.06,.36,1.63v.35c0,.11-.01,.19-.03,.25h-2.58v-.33c0-.4-.1-.78-.31-1.15s-.57-.67-1.08-.9-1.21-.35-2.12-.35c-.58,0-1.08,.04-1.5,.13-.42,.09-.77,.23-1.05,.42s-.49,.41-.63,.66c-.14,.25-.21,.54-.21,.85,0,.52,.17,.92,.51,1.2,.34,.28,.79,.51,1.37,.69,.57,.18,1.18,.38,1.84,.6,.7,.2,1.42,.4,2.15,.61,.73,.21,1.4,.48,2.01,.8,.61,.32,1.1,.75,1.47,1.3,.37,.55,.55,1.27,.55,2.18,0,.84-.16,1.57-.48,2.19-.32,.62-.78,1.13-1.37,1.53-.59,.4-1.28,.7-2.07,.89-.79,.19-1.65,.28-2.59,.28Z"/><path d="M496.96,10.93v-2.94h2.64v2.94h-2.64Zm0,18.75V13.9h2.64v15.78h-2.64Z"/><path d="M506.38,35.14c-.76,0-1.46-.16-2.1-.46-.64-.31-1.15-.76-1.53-1.33-.38-.58-.57-1.27-.57-2.07,0-.88,.25-1.61,.74-2.19,.49-.58,1.07-1.01,1.75-1.29-.5-.24-.89-.57-1.17-1-.28-.43-.42-.9-.42-1.42,0-.7,.25-1.29,.76-1.77s1.13-.8,1.88-.96c-.68-.44-1.21-1.01-1.61-1.7-.39-.69-.58-1.46-.58-2.29,0-1,.24-1.88,.71-2.64,.47-.76,1.19-1.36,2.16-1.8s2.16-.66,3.55-.66c.64,0,1.24,.04,1.8,.14,.56,.09,1.06,.24,1.5,.44,.7-.32,1.22-.73,1.57-1.23,.35-.5,.57-1.01,.65-1.53h2.61c0,.6-.14,1.17-.41,1.7-.27,.53-.64,.97-1.09,1.32-.46,.35-1.02,.58-1.68,.71,.5,.48,.88,1.02,1.12,1.62,.25,.6,.38,1.25,.38,1.95,0,1-.24,1.89-.71,2.66s-1.17,1.38-2.11,1.81c-.94,.44-2.12,.66-3.54,.66h-2.46c-.54,0-.98,.1-1.32,.31-.34,.21-.51,.55-.51,1.01,0,.4,.17,.73,.51,.97,.34,.25,.78,.38,1.32,.38h6.42c1.16,0,2.11,.39,2.85,1.16,.74,.77,1.11,1.75,1.11,2.96,0,.86-.22,1.63-.65,2.32s-1.03,1.24-1.8,1.65c-.77,.41-1.67,.61-2.68,.61h-6.45Zm.75-2.01h5.67c.46,0,.88-.1,1.26-.29,.38-.19,.68-.46,.9-.79,.22-.34,.33-.71,.33-1.11,0-.68-.2-1.22-.6-1.62s-.9-.6-1.5-.6h-6.06c-.64,0-1.18,.22-1.62,.65-.44,.43-.66,.95-.66,1.57,0,.66,.22,1.19,.66,1.59,.44,.4,.98,.6,1.62,.6Zm2.85-11.34c1.28,0,2.23-.28,2.85-.84,.62-.56,.93-1.33,.93-2.31s-.31-1.72-.93-2.28c-.62-.56-1.57-.84-2.85-.84s-2.23,.28-2.87,.84c-.63,.56-.94,1.32-.94,2.28,0,.62,.14,1.17,.42,1.65,.28,.48,.7,.85,1.26,1.11,.56,.26,1.27,.39,2.13,.39Z"/><path d="M520.38,29.68V13.9h2.13l.24,2.37h.21c.42-.64,.89-1.16,1.42-1.56,.53-.4,1.12-.69,1.77-.88,.65-.19,1.34-.29,2.08-.29,1,0,1.88,.17,2.62,.51,.75,.34,1.34,.89,1.77,1.65,.43,.76,.64,1.79,.64,3.09v10.89h-2.64v-10.53c0-.66-.08-1.2-.25-1.62s-.4-.75-.69-.99c-.29-.24-.64-.41-1.05-.51s-.87-.15-1.37-.15c-.74,0-1.44,.18-2.1,.54-.66,.36-1.19,.88-1.58,1.56-.39,.68-.58,1.49-.58,2.43v9.27h-2.64Z"/><path d="M543.57,30.04c-1.56,0-2.88-.3-3.95-.88-1.07-.59-1.88-1.5-2.43-2.72-.55-1.22-.83-2.77-.83-4.65s.27-3.45,.83-4.67c.55-1.21,1.37-2.11,2.45-2.7,1.08-.59,2.43-.89,4.05-.89,1.48,0,2.72,.29,3.72,.85,1,.57,1.75,1.42,2.26,2.55,.51,1.13,.77,2.55,.77,4.24v1.26h-11.34c.04,1.26,.22,2.29,.55,3.1s.83,1.4,1.49,1.77c.66,.37,1.49,.56,2.49,.56,.68,0,1.28-.08,1.79-.26,.51-.17,.94-.41,1.29-.73,.35-.32,.62-.7,.79-1.14,.18-.44,.28-.92,.3-1.44h2.58c-.02,.84-.18,1.62-.48,2.33s-.74,1.32-1.32,1.81c-.58,.5-1.29,.89-2.13,1.17s-1.8,.42-2.88,.42Zm-4.41-9.57h8.55c0-.88-.1-1.62-.3-2.22-.2-.6-.49-1.09-.85-1.47-.37-.38-.8-.65-1.29-.83-.49-.17-1.05-.25-1.67-.25-.92,0-1.7,.17-2.34,.51-.64,.34-1.13,.86-1.47,1.56-.34,.7-.55,1.6-.63,2.7Z"/><path d="M553.71,29.68V13.9h2.13l.24,2.61h.21c.16-.5,.38-.98,.66-1.43,.28-.45,.66-.82,1.14-1.11,.48-.29,1.07-.44,1.77-.44,.3,0,.58,.03,.83,.08,.25,.05,.44,.1,.55,.17v2.43h-.99c-.68,0-1.27,.12-1.75,.35-.49,.23-.9,.56-1.22,.98-.32,.42-.55,.92-.71,1.5-.15,.58-.22,1.2-.22,1.86v8.79h-2.64Z"/></g><g><path d="M632.66,764.57v20.58h-7.68c-2.16,0-4-.36-5.52-1.08-1.52-.72-2.68-1.84-3.5-3.35-.81-1.51-1.21-3.46-1.21-5.87s.41-4.3,1.21-5.82c.81-1.52,1.98-2.65,3.5-3.38,1.52-.73,3.36-1.09,5.52-1.09h7.68Zm-2.85,2.46h-4.77c-1.14,0-2.16,.15-3.06,.44-.9,.29-1.67,.73-2.31,1.33-.64,.6-1.12,1.38-1.46,2.33-.33,.95-.49,2.08-.49,3.4v.6c0,1.36,.16,2.51,.49,3.46s.81,1.73,1.44,2.33,1.39,1.04,2.29,1.33,1.93,.43,3.09,.43h4.77v-15.66Z"/><path d="M611.15,764.57v15.78h-2.64v-15.78h2.64Zm0,18.75v2.94h-2.64v-2.94h2.64Z"/><path d="M601.73,759.11c.76,0,1.46,.16,2.1,.46,.64,.31,1.15,.76,1.53,1.34,.38,.58,.57,1.27,.57,2.07,0,.88-.25,1.61-.74,2.19-.49,.58-1.07,1.01-1.75,1.29,.5,.24,.89,.58,1.17,1,.28,.43,.42,.9,.42,1.42,0,.7-.25,1.29-.76,1.77-.51,.48-1.13,.8-1.88,.96,.68,.44,1.21,1.01,1.61,1.7,.39,.69,.58,1.46,.58,2.29,0,1-.24,1.88-.71,2.64s-1.19,1.36-2.16,1.8-2.16,.66-3.55,.66c-.64,0-1.24-.04-1.8-.14-.56-.09-1.06-.23-1.5-.43-.7,.32-1.22,.73-1.57,1.23-.35,.5-.57,1.01-.65,1.53h-2.61c0-.6,.14-1.17,.41-1.7,.27-.53,.64-.97,1.09-1.32,.46-.35,1.02-.58,1.68-.71-.5-.48-.88-1.02-1.12-1.62-.25-.6-.38-1.25-.38-1.95,0-1,.24-1.88,.71-2.65,.47-.77,1.17-1.38,2.11-1.82,.94-.44,2.12-.66,3.54-.66h2.46c.54,0,.98-.11,1.32-.32,.34-.21,.51-.55,.51-1,0-.4-.17-.73-.51-.97-.34-.25-.78-.38-1.32-.38h-6.42c-1.16,0-2.11-.39-2.85-1.16-.74-.77-1.11-1.75-1.11-2.96,0-.86,.22-1.63,.65-2.32s1.03-1.24,1.8-1.65c.77-.41,1.67-.62,2.68-.62h6.45Zm-.75,2.01h-5.67c-.46,0-.88,.1-1.26,.29-.38,.19-.68,.46-.9,.79-.22,.34-.33,.71-.33,1.11,0,.68,.2,1.22,.6,1.62s.9,.6,1.5,.6h6.06c.64,0,1.18-.21,1.62-.64,.44-.43,.66-.96,.66-1.57,0-.66-.22-1.19-.66-1.59-.44-.4-.98-.6-1.62-.6Zm-2.85,11.34c-1.28,0-2.23,.28-2.85,.84-.62,.56-.93,1.33-.93,2.31s.31,1.72,.93,2.28c.62,.56,1.57,.84,2.85,.84s2.23-.28,2.87-.84c.63-.56,.94-1.32,.94-2.28,0-.62-.14-1.17-.42-1.65-.28-.48-.7-.85-1.26-1.11-.56-.26-1.27-.39-2.13-.39Z"/><path d="M587.72,764.57v15.78h-2.64v-15.78h2.64Zm0,18.75v2.94h-2.64v-2.94h2.64Z"/><path d="M577.29,764.21c.82,0,1.46,.16,1.92,.46s.79,.72,.99,1.23c.2,.51,.3,1.05,.3,1.64v10.59h2.04v2.22h-2.1l-.48,4.41h-2.1v-4.41h-2.97v-2.22h2.97v-10.2c0-.5-.09-.88-.27-1.12s-.52-.38-1.02-.38h-1.68v-1.74c.2-.1,.44-.18,.72-.24,.28-.06,.57-.11,.86-.16s.57-.08,.83-.08Z"/><path d="M568.1,764.21c.58,0,1.16,.07,1.74,.21,.58,.14,1.12,.37,1.62,.69s.9,.77,1.2,1.34c.3,.57,.45,1.28,.45,2.14,0,1.08-.26,1.97-.78,2.67-.52,.7-1.25,1.25-2.17,1.63-.93,.39-2.04,.66-3.32,.81-1.28,.15-2.67,.22-4.17,.22v1.8c0,.58,.1,1.08,.3,1.5,.2,.42,.55,.74,1.07,.97,.51,.23,1.24,.34,2.17,.34s1.62-.12,2.14-.34c.53-.23,.9-.53,1.11-.88,.21-.36,.32-.76,.32-1.2v-.45h2.55c.02,.1,.03,.2,.03,.3v.36c0,.96-.27,1.76-.8,2.41-.53,.65-1.27,1.14-2.23,1.47s-2.06,.5-3.3,.5c-1.32,0-2.42-.19-3.32-.57-.89-.38-1.56-.92-2.01-1.62s-.67-1.54-.67-2.52v-8.55c0-.38-.09-.64-.27-.79-.18-.15-.4-.22-.66-.22h-1.17v-1.74c.28-.12,.59-.22,.93-.31s.73-.13,1.17-.13c.52,0,.95,.1,1.29,.31s.6,.5,.78,.87c.18,.37,.3,.78,.36,1.25h.21c.36-.5,.82-.94,1.37-1.3,.55-.37,1.17-.66,1.84-.86s1.42-.3,2.22-.3Zm-.66,2.22c-.64,0-1.24,.1-1.81,.3-.57,.2-1.08,.48-1.51,.85-.44,.37-.79,.81-1.05,1.33-.26,.52-.39,1.09-.39,1.71v1.32c1.62,0,3-.09,4.14-.27,1.14-.18,2.02-.5,2.62-.96,.61-.46,.92-1.11,.92-1.95,0-.54-.12-.98-.36-1.32-.24-.34-.58-.59-1.02-.76-.44-.17-.95-.26-1.53-.26Z"/><path d="M555.71,764.57v21.69h-2.64v-21.69h2.64Z"/><path d="M542.19,764.57v20.58h-7.68c-2.16,0-4-.36-5.52-1.08-1.52-.72-2.68-1.84-3.5-3.35-.81-1.51-1.21-3.46-1.21-5.87s.41-4.3,1.21-5.82c.81-1.52,1.98-2.65,3.5-3.38,1.52-.73,3.36-1.09,5.52-1.09h7.68Zm-2.85,2.46h-4.77c-1.14,0-2.16,.15-3.06,.44-.9,.29-1.67,.73-2.31,1.33-.64,.6-1.12,1.38-1.46,2.33-.33,.95-.49,2.08-.49,3.4v.6c0,1.36,.16,2.51,.49,3.46s.81,1.73,1.44,2.33,1.39,1.04,2.29,1.33,1.93,.43,3.09,.43h4.77v-15.66Z"/><path d="M514.38,764.21c1.56,0,2.88,.3,3.95,.88,1.07,.59,1.88,1.5,2.43,2.72,.55,1.22,.83,2.77,.83,4.65s-.27,3.45-.83,4.67c-.55,1.21-1.37,2.11-2.45,2.7-1.08,.59-2.43,.89-4.05,.89-1.48,0-2.72-.29-3.72-.85-1-.57-1.75-1.42-2.26-2.55-.51-1.13-.77-2.54-.77-4.24v-1.26h11.34c-.04-1.26-.22-2.29-.55-3.1-.33-.81-.83-1.4-1.49-1.77-.66-.37-1.49-.56-2.49-.56-.68,0-1.28,.09-1.79,.26s-.94,.41-1.29,.73-.62,.7-.79,1.14c-.18,.44-.28,.92-.3,1.44h-2.58c.02-.84,.18-1.62,.48-2.32,.3-.71,.74-1.32,1.32-1.82,.58-.5,1.29-.89,2.13-1.17s1.8-.42,2.88-.42Zm4.41,9.57h-8.55c0,.88,.1,1.62,.3,2.22s.49,1.09,.85,1.47c.37,.38,.8,.66,1.29,.83,.49,.17,1.05,.25,1.67,.25,.92,0,1.7-.17,2.34-.51,.64-.34,1.13-.86,1.47-1.56,.34-.7,.55-1.6,.63-2.7Z"/><path d="M498.72,764.21c1.08,0,2.03,.11,2.85,.33,.82,.22,1.5,.54,2.04,.96s.95,.92,1.23,1.5,.42,1.24,.42,1.98v.28c0,.09,0,.17-.03,.23h-2.61c.02-.08,.03-.15,.03-.21v-.18c-.02-.7-.21-1.25-.55-1.65s-.83-.68-1.46-.84-1.31-.24-2.07-.24c-.66,0-1.27,.09-1.83,.26-.56,.17-1,.43-1.33,.78s-.5,.79-.5,1.34c0,.66,.22,1.16,.65,1.51,.43,.35,1,.62,1.7,.83,.7,.2,1.43,.41,2.19,.63,.64,.18,1.28,.38,1.92,.6,.64,.22,1.21,.49,1.73,.81,.51,.32,.92,.74,1.23,1.25,.31,.51,.46,1.15,.46,1.93,0,.7-.14,1.32-.43,1.86-.29,.54-.71,1-1.25,1.38s-1.2,.67-1.96,.85-1.62,.29-2.57,.29c-1,0-1.88-.11-2.62-.33s-1.38-.53-1.88-.93c-.5-.4-.87-.86-1.11-1.37-.24-.51-.36-1.05-.36-1.63v-.35c0-.11,.01-.19,.03-.25h2.58v.33c0,.4,.1,.78,.31,1.15s.57,.67,1.08,.9c.51,.23,1.21,.34,2.12,.34,.58,0,1.08-.04,1.5-.13,.42-.09,.77-.23,1.05-.42,.28-.19,.49-.41,.63-.66,.14-.25,.21-.54,.21-.85,0-.52-.17-.92-.51-1.2-.34-.28-.79-.51-1.37-.69-.57-.18-1.18-.38-1.84-.6-.7-.2-1.42-.41-2.15-.62-.73-.21-1.4-.48-2.01-.79-.61-.32-1.1-.76-1.47-1.3-.37-.55-.55-1.28-.55-2.18,0-.84,.16-1.57,.48-2.19,.32-.62,.78-1.13,1.37-1.53,.59-.4,1.28-.7,2.07-.89,.79-.19,1.65-.28,2.59-.28Z"/><path d="M488.94,764.57v15.78h-2.64v-15.78h2.64Zm0,18.75v2.94h-2.64v-2.94h2.64Z"/><path d="M479.52,759.11c.76,0,1.46,.16,2.1,.46,.64,.31,1.15,.76,1.53,1.34,.38,.58,.57,1.27,.57,2.07,0,.88-.25,1.61-.74,2.19-.49,.58-1.07,1.01-1.75,1.29,.5,.24,.89,.58,1.17,1,.28,.43,.42,.9,.42,1.42,0,.7-.25,1.29-.76,1.77-.51,.48-1.13,.8-1.88,.96,.68,.44,1.21,1.01,1.61,1.7,.39,.69,.58,1.46,.58,2.29,0,1-.24,1.88-.71,2.64s-1.19,1.36-2.16,1.8-2.16,.66-3.55,.66c-.64,0-1.24-.04-1.8-.14-.56-.09-1.06-.23-1.5-.43-.7,.32-1.22,.73-1.57,1.23-.35,.5-.57,1.01-.65,1.53h-2.61c0-.6,.14-1.17,.41-1.7,.27-.53,.64-.97,1.09-1.32,.46-.35,1.02-.58,1.68-.71-.5-.48-.88-1.02-1.12-1.62-.25-.6-.38-1.25-.38-1.95,0-1,.24-1.88,.71-2.65,.47-.77,1.17-1.38,2.11-1.82,.94-.44,2.12-.66,3.54-.66h2.46c.54,0,.98-.11,1.32-.32,.34-.21,.51-.55,.51-1,0-.4-.17-.73-.51-.97-.34-.25-.78-.38-1.32-.38h-6.42c-1.16,0-2.11-.39-2.85-1.16-.74-.77-1.11-1.75-1.11-2.96,0-.86,.22-1.63,.65-2.32s1.03-1.24,1.8-1.65c.77-.41,1.67-.62,2.68-.62h6.45Zm-.75,2.01h-5.67c-.46,0-.88,.1-1.26,.29-.38,.19-.68,.46-.9,.79-.22,.34-.33,.71-.33,1.11,0,.68,.2,1.22,.6,1.62s.9,.6,1.5,.6h6.06c.64,0,1.18-.21,1.62-.64,.44-.43,.66-.96,.66-1.57,0-.66-.22-1.19-.66-1.59-.44-.4-.98-.6-1.62-.6Zm-2.85,11.34c-1.28,0-2.23,.28-2.85,.84-.62,.56-.93,1.33-.93,2.31s.31,1.72,.93,2.28c.62,.56,1.57,.84,2.85,.84s2.23-.28,2.87-.84c.63-.56,.94-1.32,.94-2.28,0-.62-.14-1.17-.42-1.65-.28-.48-.7-.85-1.26-1.11-.56-.26-1.27-.39-2.13-.39Z"/><path d="M465.51,764.57v15.78h-2.13l-.24-2.37h-.21c-.42,.64-.89,1.16-1.42,1.56-.53,.4-1.12,.69-1.77,.88-.65,.19-1.34,.29-2.08,.29-1,0-1.88-.17-2.62-.51s-1.34-.89-1.77-1.65c-.43-.76-.64-1.79-.64-3.09v-10.89h2.64v10.53c0,.66,.08,1.2,.25,1.62s.4,.75,.69,.99c.29,.24,.64,.41,1.05,.51s.87,.15,1.37,.15c.74,0,1.44-.18,2.1-.54,.66-.36,1.19-.88,1.58-1.56s.58-1.49,.58-2.43v-9.27h2.64Z"/><path d="M442.32,764.21c1.56,0,2.88,.3,3.95,.88,1.07,.59,1.88,1.5,2.43,2.72,.55,1.22,.83,2.77,.83,4.65s-.27,3.45-.83,4.67c-.55,1.21-1.37,2.11-2.45,2.7-1.08,.59-2.43,.89-4.05,.89-1.48,0-2.72-.29-3.72-.85-1-.57-1.75-1.42-2.26-2.55-.51-1.13-.77-2.54-.77-4.24v-1.26h11.34c-.04-1.26-.22-2.29-.55-3.1-.33-.81-.83-1.4-1.49-1.77-.66-.37-1.49-.56-2.49-.56-.68,0-1.28,.09-1.79,.26s-.94,.41-1.29,.73-.62,.7-.79,1.14c-.18,.44-.28,.92-.3,1.44h-2.58c.02-.84,.18-1.62,.48-2.32,.3-.71,.74-1.32,1.32-1.82,.58-.5,1.29-.89,2.13-1.17s1.8-.42,2.88-.42Zm4.41,9.57h-8.55c0,.88,.1,1.62,.3,2.22s.49,1.09,.85,1.47c.37,.38,.8,.66,1.29,.83,.49,.17,1.05,.25,1.67,.25,.92,0,1.7-.17,2.34-.51,.64-.34,1.13-.86,1.47-1.56,.34-.7,.55-1.6,.63-2.7Z"/><path d="M432.18,764.57v15.78h-2.13l-.24-2.61h-.21c-.16,.5-.38,.97-.66,1.42s-.66,.82-1.14,1.11c-.48,.29-1.07,.43-1.77,.43-.3,0-.58-.03-.83-.08-.25-.05-.44-.11-.55-.17v-2.43h.99c.68,0,1.27-.12,1.75-.34,.49-.23,.9-.56,1.22-.98,.32-.42,.55-.92,.71-1.5,.15-.58,.22-1.2,.22-1.86v-8.79h2.64Z"/></g><g><path d="M357.66,764.57v20.58h-7.68c-2.16,0-4-.36-5.52-1.08-1.52-.72-2.68-1.84-3.5-3.35-.81-1.51-1.21-3.46-1.21-5.87s.41-4.3,1.21-5.82c.81-1.52,1.98-2.65,3.5-3.38,1.52-.73,3.36-1.09,5.52-1.09h7.68Zm-2.85,2.46h-4.77c-1.14,0-2.16,.15-3.06,.44-.9,.29-1.67,.73-2.31,1.33-.64,.6-1.12,1.38-1.46,2.33-.33,.95-.49,2.08-.49,3.4v.6c0,1.36,.16,2.51,.49,3.46s.81,1.73,1.44,2.33,1.39,1.04,2.29,1.33,1.93,.43,3.09,.43h4.77v-15.66Z"/><path d="M336.15,764.57v15.78h-2.64v-15.78h2.64Zm0,18.75v2.94h-2.64v-2.94h2.64Z"/><path d="M326.73,759.11c.76,0,1.46,.16,2.1,.46,.64,.31,1.15,.76,1.53,1.34,.38,.58,.57,1.27,.57,2.07,0,.88-.25,1.61-.74,2.19-.49,.58-1.07,1.01-1.75,1.29,.5,.24,.89,.58,1.17,1,.28,.43,.42,.9,.42,1.42,0,.7-.25,1.29-.76,1.77-.51,.48-1.13,.8-1.88,.96,.68,.44,1.21,1.01,1.61,1.7,.39,.69,.58,1.46,.58,2.29,0,1-.24,1.88-.71,2.64s-1.19,1.36-2.16,1.8-2.16,.66-3.55,.66c-.64,0-1.24-.04-1.8-.14-.56-.09-1.06-.23-1.5-.43-.7,.32-1.22,.73-1.57,1.23-.35,.5-.57,1.01-.65,1.53h-2.61c0-.6,.14-1.17,.41-1.7,.27-.53,.64-.97,1.09-1.32,.46-.35,1.02-.58,1.68-.71-.5-.48-.88-1.02-1.12-1.62-.25-.6-.38-1.25-.38-1.95,0-1,.24-1.88,.71-2.65,.47-.77,1.17-1.38,2.11-1.82,.94-.44,2.12-.66,3.54-.66h2.46c.54,0,.98-.11,1.32-.32,.34-.21,.51-.55,.51-1,0-.4-.17-.73-.51-.97-.34-.25-.78-.38-1.32-.38h-6.42c-1.16,0-2.11-.39-2.85-1.16-.74-.77-1.11-1.75-1.11-2.96,0-.86,.22-1.63,.65-2.32s1.03-1.24,1.8-1.65c.77-.41,1.67-.62,2.68-.62h6.45Zm-.75,2.01h-5.67c-.46,0-.88,.1-1.26,.29-.38,.19-.68,.46-.9,.79-.22,.34-.33,.71-.33,1.11,0,.68,.2,1.22,.6,1.62s.9,.6,1.5,.6h6.06c.64,0,1.18-.21,1.62-.64,.44-.43,.66-.96,.66-1.57,0-.66-.22-1.19-.66-1.59-.44-.4-.98-.6-1.62-.6Zm-2.85,11.34c-1.28,0-2.23,.28-2.85,.84-.62,.56-.93,1.33-.93,2.31s.31,1.72,.93,2.28c.62,.56,1.57,.84,2.85,.84s2.23-.28,2.87-.84c.63-.56,.94-1.32,.94-2.28,0-.62-.14-1.17-.42-1.65-.28-.48-.7-.85-1.26-1.11-.56-.26-1.27-.39-2.13-.39Z"/><path d="M312.72,764.57v15.78h-2.64v-15.78h2.64Zm0,18.75v2.94h-2.64v-2.94h2.64Z"/><path d="M302.29,764.21c.82,0,1.46,.16,1.92,.46s.79,.72,.99,1.23c.2,.51,.3,1.05,.3,1.64v10.59h2.04v2.22h-2.1l-.48,4.41h-2.1v-4.41h-2.97v-2.22h2.97v-10.2c0-.5-.09-.88-.27-1.12s-.52-.38-1.02-.38h-1.68v-1.74c.2-.1,.44-.18,.72-.24,.28-.06,.57-.11,.86-.16s.57-.08,.83-.08Z"/><path d="M293.1,764.21c.58,0,1.16,.07,1.74,.21,.58,.14,1.12,.37,1.62,.69s.9,.77,1.2,1.34c.3,.57,.45,1.28,.45,2.14,0,1.08-.26,1.97-.78,2.67-.52,.7-1.25,1.25-2.17,1.63-.93,.39-2.04,.66-3.32,.81-1.28,.15-2.67,.22-4.17,.22v1.8c0,.58,.1,1.08,.3,1.5,.2,.42,.55,.74,1.07,.97,.51,.23,1.24,.34,2.17,.34s1.62-.12,2.14-.34c.53-.23,.9-.53,1.11-.88,.21-.36,.32-.76,.32-1.2v-.45h2.55c.02,.1,.03,.2,.03,.3v.36c0,.96-.27,1.76-.8,2.41-.53,.65-1.27,1.14-2.23,1.47s-2.06,.5-3.3,.5c-1.32,0-2.42-.19-3.32-.57-.89-.38-1.56-.92-2.01-1.62s-.67-1.54-.67-2.52v-8.55c0-.38-.09-.64-.27-.79-.18-.15-.4-.22-.66-.22h-1.17v-1.74c.28-.12,.59-.22,.93-.31s.73-.13,1.17-.13c.52,0,.95,.1,1.29,.31s.6,.5,.78,.87c.18,.37,.3,.78,.36,1.25h.21c.36-.5,.82-.94,1.37-1.3,.55-.37,1.17-.66,1.84-.86s1.42-.3,2.22-.3Zm-.66,2.22c-.64,0-1.24,.1-1.81,.3-.57,.2-1.08,.48-1.51,.85-.44,.37-.79,.81-1.05,1.33-.26,.52-.39,1.09-.39,1.71v1.32c1.62,0,3-.09,4.14-.27,1.14-.18,2.02-.5,2.62-.96,.61-.46,.92-1.11,.92-1.95,0-.54-.12-.98-.36-1.32-.24-.34-.58-.59-1.02-.76-.44-.17-.95-.26-1.53-.26Z"/><path d="M280.71,764.57v21.69h-2.64v-21.69h2.64Z"/><path d="M267.19,764.57v20.58h-7.68c-2.16,0-4-.36-5.52-1.08-1.52-.72-2.68-1.84-3.5-3.35-.81-1.51-1.21-3.46-1.21-5.87s.41-4.3,1.21-5.82c.81-1.52,1.98-2.65,3.5-3.38,1.52-.73,3.36-1.09,5.52-1.09h7.68Zm-2.85,2.46h-4.77c-1.14,0-2.16,.15-3.06,.44-.9,.29-1.67,.73-2.31,1.33-.64,.6-1.12,1.38-1.46,2.33-.33,.95-.49,2.08-.49,3.4v.6c0,1.36,.16,2.51,.49,3.46s.81,1.73,1.44,2.33,1.39,1.04,2.29,1.33,1.93,.43,3.09,.43h4.77v-15.66Z"/><path d="M239.38,764.21c1.56,0,2.88,.3,3.95,.88,1.07,.59,1.88,1.5,2.43,2.72,.55,1.22,.83,2.77,.83,4.65s-.27,3.45-.83,4.67c-.55,1.21-1.37,2.11-2.45,2.7-1.08,.59-2.43,.89-4.05,.89-1.48,0-2.72-.29-3.72-.85-1-.57-1.75-1.42-2.26-2.55-.51-1.13-.77-2.54-.77-4.24v-1.26h11.34c-.04-1.26-.22-2.29-.55-3.1-.33-.81-.83-1.4-1.49-1.77-.66-.37-1.49-.56-2.49-.56-.68,0-1.28,.09-1.79,.26s-.94,.41-1.29,.73-.62,.7-.79,1.14c-.18,.44-.28,.92-.3,1.44h-2.58c.02-.84,.18-1.62,.48-2.32,.3-.71,.74-1.32,1.32-1.82,.58-.5,1.29-.89,2.13-1.17s1.8-.42,2.88-.42Zm4.41,9.57h-8.55c0,.88,.1,1.62,.3,2.22s.49,1.09,.85,1.47c.37,.38,.8,.66,1.29,.83,.49,.17,1.05,.25,1.67,.25,.92,0,1.7-.17,2.34-.51,.64-.34,1.13-.86,1.47-1.56,.34-.7,.55-1.6,.63-2.7Z"/><path d="M223.72,764.21c1.08,0,2.03,.11,2.85,.33,.82,.22,1.5,.54,2.04,.96s.95,.92,1.23,1.5,.42,1.24,.42,1.98v.28c0,.09,0,.17-.03,.23h-2.61c.02-.08,.03-.15,.03-.21v-.18c-.02-.7-.21-1.25-.55-1.65s-.83-.68-1.46-.84-1.31-.24-2.07-.24c-.66,0-1.27,.09-1.83,.26-.56,.17-1,.43-1.33,.78s-.5,.79-.5,1.34c0,.66,.22,1.16,.65,1.51,.43,.35,1,.62,1.7,.83,.7,.2,1.43,.41,2.19,.63,.64,.18,1.28,.38,1.92,.6,.64,.22,1.21,.49,1.73,.81,.51,.32,.92,.74,1.23,1.25,.31,.51,.46,1.15,.46,1.93,0,.7-.14,1.32-.43,1.86-.29,.54-.71,1-1.25,1.38s-1.2,.67-1.96,.85-1.62,.29-2.57,.29c-1,0-1.88-.11-2.62-.33s-1.38-.53-1.88-.93c-.5-.4-.87-.86-1.11-1.37-.24-.51-.36-1.05-.36-1.63v-.35c0-.11,.01-.19,.03-.25h2.58v.33c0,.4,.1,.78,.31,1.15s.57,.67,1.08,.9c.51,.23,1.21,.34,2.12,.34,.58,0,1.08-.04,1.5-.13,.42-.09,.77-.23,1.05-.42,.28-.19,.49-.41,.63-.66,.14-.25,.21-.54,.21-.85,0-.52-.17-.92-.51-1.2-.34-.28-.79-.51-1.37-.69-.57-.18-1.18-.38-1.84-.6-.7-.2-1.42-.41-2.15-.62-.73-.21-1.4-.48-2.01-.79-.61-.32-1.1-.76-1.47-1.3-.37-.55-.55-1.28-.55-2.18,0-.84,.16-1.57,.48-2.19,.32-.62,.78-1.13,1.37-1.53,.59-.4,1.28-.7,2.07-.89,.79-.19,1.65-.28,2.59-.28Z"/><path d="M213.94,764.57v15.78h-2.64v-15.78h2.64Zm0,18.75v2.94h-2.64v-2.94h2.64Z"/><path d="M204.52,759.11c.76,0,1.46,.16,2.1,.46,.64,.31,1.15,.76,1.53,1.34,.38,.58,.57,1.27,.57,2.07,0,.88-.25,1.61-.74,2.19-.49,.58-1.07,1.01-1.75,1.29,.5,.24,.89,.58,1.17,1,.28,.43,.42,.9,.42,1.42,0,.7-.25,1.29-.76,1.77-.51,.48-1.13,.8-1.88,.96,.68,.44,1.21,1.01,1.61,1.7,.39,.69,.58,1.46,.58,2.29,0,1-.24,1.88-.71,2.64s-1.19,1.36-2.16,1.8-2.16,.66-3.55,.66c-.64,0-1.24-.04-1.8-.14-.56-.09-1.06-.23-1.5-.43-.7,.32-1.22,.73-1.57,1.23-.35,.5-.57,1.01-.65,1.53h-2.61c0-.6,.14-1.17,.41-1.7,.27-.53,.64-.97,1.09-1.32,.46-.35,1.02-.58,1.68-.71-.5-.48-.88-1.02-1.12-1.62-.25-.6-.38-1.25-.38-1.95,0-1,.24-1.88,.71-2.65,.47-.77,1.17-1.38,2.11-1.82,.94-.44,2.12-.66,3.54-.66h2.46c.54,0,.98-.11,1.32-.32,.34-.21,.51-.55,.51-1,0-.4-.17-.73-.51-.97-.34-.25-.78-.38-1.32-.38h-6.42c-1.16,0-2.11-.39-2.85-1.16-.74-.77-1.11-1.75-1.11-2.96,0-.86,.22-1.63,.65-2.32s1.03-1.24,1.8-1.65c.77-.41,1.67-.62,2.68-.62h6.45Zm-.75,2.01h-5.67c-.46,0-.88,.1-1.26,.29-.38,.19-.68,.46-.9,.79-.22,.34-.33,.71-.33,1.11,0,.68,.2,1.22,.6,1.62s.9,.6,1.5,.6h6.06c.64,0,1.18-.21,1.62-.64,.44-.43,.66-.96,.66-1.57,0-.66-.22-1.19-.66-1.59-.44-.4-.98-.6-1.62-.6Zm-2.85,11.34c-1.28,0-2.23,.28-2.85,.84-.62,.56-.93,1.33-.93,2.31s.31,1.72,.93,2.28c.62,.56,1.57,.84,2.85,.84s2.23-.28,2.87-.84c.63-.56,.94-1.32,.94-2.28,0-.62-.14-1.17-.42-1.65-.28-.48-.7-.85-1.26-1.11-.56-.26-1.27-.39-2.13-.39Z"/><path d="M190.51,764.57v15.78h-2.13l-.24-2.37h-.21c-.42,.64-.89,1.16-1.42,1.56-.53,.4-1.12,.69-1.77,.88-.65,.19-1.34,.29-2.08,.29-1,0-1.88-.17-2.62-.51s-1.34-.89-1.77-1.65c-.43-.76-.64-1.79-.64-3.09v-10.89h2.64v10.53c0,.66,.08,1.2,.25,1.62s.4,.75,.69,.99c.29,.24,.64,.41,1.05,.51s.87,.15,1.37,.15c.74,0,1.44-.18,2.1-.54,.66-.36,1.19-.88,1.58-1.56s.58-1.49,.58-2.43v-9.27h2.64Z"/><path d="M167.32,764.21c1.56,0,2.88,.3,3.95,.88,1.07,.59,1.88,1.5,2.43,2.72,.55,1.22,.83,2.77,.83,4.65s-.27,3.45-.83,4.67c-.55,1.21-1.37,2.11-2.45,2.7-1.08,.59-2.43,.89-4.05,.89-1.48,0-2.72-.29-3.72-.85-1-.57-1.75-1.42-2.26-2.55-.51-1.13-.77-2.54-.77-4.24v-1.26h11.34c-.04-1.26-.22-2.29-.55-3.1-.33-.81-.83-1.4-1.49-1.77-.66-.37-1.49-.56-2.49-.56-.68,0-1.28,.09-1.79,.26s-.94,.41-1.29,.73-.62,.7-.79,1.14c-.18,.44-.28,.92-.3,1.44h-2.58c.02-.84,.18-1.62,.48-2.32,.3-.71,.74-1.32,1.32-1.82,.58-.5,1.29-.89,2.13-1.17s1.8-.42,2.88-.42Zm4.41,9.57h-8.55c0,.88,.1,1.62,.3,2.22s.49,1.09,.85,1.47c.37,.38,.8,.66,1.29,.83,.49,.17,1.05,.25,1.67,.25,.92,0,1.7-.17,2.34-.51,.64-.34,1.13-.86,1.47-1.56,.34-.7,.55-1.6,.63-2.7Z"/><path d="M157.18,764.57v15.78h-2.13l-.24-2.61h-.21c-.16,.5-.38,.97-.66,1.42s-.66,.82-1.14,1.11c-.48,.29-1.07,.43-1.77,.43-.3,0-.58-.03-.83-.08-.25-.05-.44-.11-.55-.17v-2.43h.99c.68,0,1.27-.12,1.75-.34,.49-.23,.9-.56,1.22-.98,.32-.42,.55-.92,.71-1.5,.15-.58,.22-1.2,.22-1.86v-8.79h2.64Z"/></g><g><path d="M86.66,764.57v20.58h-7.68c-2.16,0-4-.36-5.52-1.08-1.52-.72-2.68-1.84-3.5-3.35-.81-1.51-1.21-3.46-1.21-5.87s.41-4.3,1.21-5.82c.81-1.52,1.98-2.65,3.5-3.38,1.52-.73,3.36-1.09,5.52-1.09h7.68Zm-2.85,2.46h-4.77c-1.14,0-2.16,.15-3.06,.44-.9,.29-1.67,.73-2.31,1.33-.64,.6-1.12,1.38-1.46,2.33-.33,.95-.49,2.08-.49,3.4v.6c0,1.36,.16,2.51,.49,3.46s.81,1.73,1.44,2.33,1.39,1.04,2.29,1.33,1.93,.43,3.09,.43h4.77v-15.66Z"/><path d="M65.15,764.57v15.78h-2.64v-15.78h2.64Zm0,18.75v2.94h-2.64v-2.94h2.64Z"/><path d="M55.73,759.11c.76,0,1.46,.16,2.1,.46,.64,.31,1.15,.76,1.53,1.34,.38,.58,.57,1.27,.57,2.07,0,.88-.25,1.61-.74,2.19-.49,.58-1.07,1.01-1.75,1.29,.5,.24,.89,.58,1.17,1,.28,.43,.42,.9,.42,1.42,0,.7-.25,1.29-.76,1.77-.51,.48-1.13,.8-1.88,.96,.68,.44,1.21,1.01,1.61,1.7,.39,.69,.58,1.46,.58,2.29,0,1-.24,1.88-.71,2.64s-1.19,1.36-2.16,1.8-2.16,.66-3.55,.66c-.64,0-1.24-.04-1.8-.14-.56-.09-1.06-.23-1.5-.43-.7,.32-1.22,.73-1.57,1.23-.35,.5-.57,1.01-.65,1.53h-2.61c0-.6,.14-1.17,.41-1.7,.27-.53,.64-.97,1.09-1.32,.46-.35,1.02-.58,1.68-.71-.5-.48-.88-1.02-1.12-1.62-.25-.6-.38-1.25-.38-1.95,0-1,.24-1.88,.71-2.65,.47-.77,1.17-1.38,2.11-1.82,.94-.44,2.12-.66,3.54-.66h2.46c.54,0,.98-.11,1.32-.32,.34-.21,.51-.55,.51-1,0-.4-.17-.73-.51-.97-.34-.25-.78-.38-1.32-.38h-6.42c-1.16,0-2.11-.39-2.85-1.16-.74-.77-1.11-1.75-1.11-2.96,0-.86,.22-1.63,.65-2.32s1.03-1.24,1.8-1.65c.77-.41,1.67-.62,2.68-.62h6.45Zm-.75,2.01h-5.67c-.46,0-.88,.1-1.26,.29-.38,.19-.68,.46-.9,.79-.22,.34-.33,.71-.33,1.11,0,.68,.2,1.22,.6,1.62s.9,.6,1.5,.6h6.06c.64,0,1.18-.21,1.62-.64,.44-.43,.66-.96,.66-1.57,0-.66-.22-1.19-.66-1.59-.44-.4-.98-.6-1.62-.6Zm-2.85,11.34c-1.28,0-2.23,.28-2.85,.84-.62,.56-.93,1.33-.93,2.31s.31,1.72,.93,2.28c.62,.56,1.57,.84,2.85,.84s2.23-.28,2.87-.84c.63-.56,.94-1.32,.94-2.28,0-.62-.14-1.17-.42-1.65-.28-.48-.7-.85-1.26-1.11-.56-.26-1.27-.39-2.13-.39Z"/><path d="M41.72,764.57v15.78h-2.64v-15.78h2.64Zm0,18.75v2.94h-2.64v-2.94h2.64Z"/><path d="M31.29,764.21c.82,0,1.46,.16,1.92,.46s.79,.72,.99,1.23c.2,.51,.3,1.05,.3,1.64v10.59h2.04v2.22h-2.1l-.48,4.41h-2.1v-4.41h-2.97v-2.22h2.97v-10.2c0-.5-.09-.88-.27-1.12s-.52-.38-1.02-.38h-1.68v-1.74c.2-.1,.44-.18,.72-.24,.28-.06,.57-.11,.86-.16s.57-.08,.83-.08Z"/><path d="M22.1,764.21c.58,0,1.16,.07,1.74,.21,.58,.14,1.12,.37,1.62,.69s.9,.77,1.2,1.34c.3,.57,.45,1.28,.45,2.14,0,1.08-.26,1.97-.78,2.67-.52,.7-1.25,1.25-2.17,1.63-.93,.39-2.04,.66-3.32,.81-1.28,.15-2.67,.22-4.17,.22v1.8c0,.58,.1,1.08,.3,1.5,.2,.42,.55,.74,1.07,.97,.51,.23,1.24,.34,2.17,.34s1.62-.12,2.14-.34c.53-.23,.9-.53,1.11-.88,.21-.36,.32-.76,.32-1.2v-.45h2.55c.02,.1,.03,.2,.03,.3v.36c0,.96-.27,1.76-.8,2.41-.53,.65-1.27,1.14-2.23,1.47s-2.06,.5-3.3,.5c-1.32,0-2.42-.19-3.32-.57-.89-.38-1.56-.92-2.01-1.62s-.67-1.54-.67-2.52v-8.55c0-.38-.09-.64-.27-.79-.18-.15-.4-.22-.66-.22h-1.17v-1.74c.28-.12,.59-.22,.93-.31s.73-.13,1.17-.13c.52,0,.95,.1,1.29,.31s.6,.5,.78,.87c.18,.37,.3,.78,.36,1.25h.21c.36-.5,.82-.94,1.37-1.3,.55-.37,1.17-.66,1.84-.86s1.42-.3,2.22-.3Zm-.66,2.22c-.64,0-1.24,.1-1.81,.3-.57,.2-1.08,.48-1.51,.85-.44,.37-.79,.81-1.05,1.33-.26,.52-.39,1.09-.39,1.71v1.32c1.62,0,3-.09,4.14-.27,1.14-.18,2.02-.5,2.62-.96,.61-.46,.92-1.11,.92-1.95,0-.54-.12-.98-.36-1.32-.24-.34-.58-.59-1.02-.76-.44-.17-.95-.26-1.53-.26Z"/><path d="M9.71,764.57v21.69h-2.64v-21.69h2.64Z"/></g><g><path d="M34.49,688.85H13.91v-7.68c0-2.16,.36-4,1.08-5.52,.72-1.52,1.84-2.68,3.35-3.5,1.51-.81,3.46-1.21,5.87-1.21s4.3,.41,5.82,1.21c1.52,.81,2.65,1.98,3.38,3.5,.73,1.52,1.09,3.36,1.09,5.52v7.68Zm-2.46-2.85v-4.77c0-1.14-.15-2.16-.44-3.06-.29-.9-.73-1.67-1.33-2.31-.6-.64-1.38-1.12-2.33-1.46-.95-.33-2.08-.49-3.4-.49h-.6c-1.36,0-2.51,.16-3.46,.49s-1.73,.81-2.33,1.44-1.04,1.39-1.33,2.29-.43,1.93-.43,3.09v4.77h15.66Z"/><path d="M15.74,667.34h-2.94v-2.64h2.94v2.64Zm18.75,0h-15.78v-2.64h15.78v2.64Z"/><path d="M39.96,657.92c0,.76-.16,1.46-.46,2.1-.31,.64-.76,1.15-1.34,1.53-.58,.38-1.27,.57-2.07,.57-.88,0-1.61-.25-2.19-.74-.58-.49-1.01-1.07-1.29-1.75-.24,.5-.58,.89-1,1.17-.43,.28-.9,.42-1.42,.42-.7,0-1.29-.25-1.77-.76-.48-.51-.8-1.13-.96-1.88-.44,.68-1.01,1.21-1.7,1.61-.69,.39-1.46,.58-2.29,.58-1,0-1.88-.24-2.64-.71s-1.36-1.19-1.8-2.16-.66-2.16-.66-3.55c0-.64,.04-1.24,.14-1.8,.09-.56,.23-1.06,.43-1.5-.32-.7-.73-1.22-1.23-1.57-.5-.35-1.01-.57-1.53-.65v-2.61c.6,0,1.17,.14,1.7,.41,.53,.27,.97,.64,1.32,1.09,.35,.46,.58,1.02,.71,1.68,.48-.5,1.02-.88,1.62-1.12,.6-.25,1.25-.38,1.95-.38,1,0,1.88,.24,2.65,.71,.77,.47,1.38,1.17,1.82,2.11,.44,.94,.66,2.12,.66,3.54v2.46c0,.54,.11,.98,.32,1.32,.21,.34,.55,.51,1,.51,.4,0,.73-.17,.97-.51,.25-.34,.38-.78,.38-1.32v-6.42c0-1.16,.39-2.11,1.16-2.85,.77-.74,1.75-1.11,2.96-1.11,.86,0,1.63,.22,2.32,.65s1.24,1.03,1.65,1.8c.41,.77,.62,1.67,.62,2.68v6.45Zm-13.35-3.6c0-1.28-.28-2.23-.84-2.85-.56-.62-1.33-.93-2.31-.93s-1.72,.31-2.28,.93c-.56,.62-.84,1.57-.84,2.85s.28,2.23,.84,2.87c.56,.63,1.32,.94,2.28,.94,.62,0,1.17-.14,1.65-.42,.48-.28,.85-.7,1.11-1.26,.26-.56,.39-1.27,.39-2.13Zm11.34,2.85v-5.67c0-.46-.1-.88-.29-1.26-.19-.38-.46-.68-.79-.9-.34-.22-.71-.33-1.11-.33-.68,0-1.22,.2-1.62,.6s-.6,.9-.6,1.5v6.06c0,.64,.21,1.18,.64,1.62,.43,.44,.96,.66,1.57,.66,.66,0,1.19-.22,1.59-.66,.4-.44,.6-.98,.6-1.62Z"/><path d="M15.74,643.91h-2.94v-2.64h2.94v2.64Zm18.75,0h-15.78v-2.64h15.78v2.64Z"/><path d="M34.85,633.47c0,.82-.16,1.46-.46,1.92s-.72,.79-1.23,.99c-.51,.2-1.05,.3-1.64,.3h-10.59v2.04h-2.22v-2.1l-4.41-.48v-2.1h4.41v-2.97h2.22v2.97h10.2c.5,0,.88-.09,1.12-.27s.38-.52,.38-1.02v-1.68h1.74c.1,.2,.18,.44,.24,.72,.06,.28,.11,.57,.16,.86s.08,.57,.08,.83Z"/><path d="M34.85,624.29c0,.58-.07,1.16-.21,1.74-.14,.58-.37,1.12-.69,1.62s-.77,.9-1.34,1.2c-.57,.3-1.28,.45-2.14,.45-1.08,0-1.97-.26-2.67-.78-.7-.52-1.25-1.25-1.63-2.17-.39-.93-.66-2.04-.81-3.32-.15-1.28-.22-2.67-.22-4.17h-1.8c-.58,0-1.08,.1-1.5,.3-.42,.2-.74,.55-.97,1.07-.23,.51-.34,1.24-.34,2.17s.12,1.62,.34,2.14c.23,.53,.53,.9,.88,1.11,.36,.21,.76,.32,1.2,.32h.45v2.55c-.1,.02-.2,.03-.3,.03h-.36c-.96,0-1.76-.27-2.41-.8-.65-.53-1.14-1.27-1.47-2.23s-.5-2.06-.5-3.3c0-1.32,.19-2.42,.57-3.32,.38-.89,.92-1.56,1.62-2.01s1.54-.67,2.52-.67h8.55c.38,0,.64-.09,.79-.27,.15-.18,.22-.4,.22-.66v-1.17h1.74c.12,.28,.22,.59,.31,.93s.13,.73,.13,1.17c0,.52-.1,.95-.31,1.29s-.5,.6-.87,.78c-.37,.18-.78,.3-1.25,.36v.21c.5,.36,.94,.82,1.3,1.37,.37,.55,.66,1.17,.86,1.84s.3,1.42,.3,2.22Zm-2.22-.66c0-.64-.1-1.24-.3-1.81-.2-.57-.48-1.08-.85-1.51-.37-.44-.81-.79-1.33-1.05-.52-.26-1.09-.39-1.71-.39h-1.32c0,1.62,.09,3,.27,4.14,.18,1.14,.5,2.02,.96,2.62,.46,.61,1.11,.92,1.95,.92,.54,0,.98-.12,1.32-.36,.34-.24,.59-.58,.76-1.02,.17-.44,.26-.95,.26-1.53Z"/><path d="M34.49,611.9H12.8v-2.64h21.69v2.64Z"/><path d="M34.49,598.37H13.91v-7.68c0-2.16,.36-4,1.08-5.52,.72-1.52,1.84-2.68,3.35-3.5,1.51-.81,3.46-1.21,5.87-1.21s4.3,.41,5.82,1.21c1.52,.81,2.65,1.98,3.38,3.5,.73,1.52,1.09,3.36,1.09,5.52v7.68Zm-2.46-2.85v-4.77c0-1.14-.15-2.16-.44-3.06-.29-.9-.73-1.67-1.33-2.31-.6-.64-1.38-1.12-2.33-1.46-.95-.33-2.08-.49-3.4-.49h-.6c-1.36,0-2.51,.16-3.46,.49s-1.73,.81-2.33,1.44-1.04,1.39-1.33,2.29-.43,1.93-.43,3.09v4.77h15.66Z"/><path d="M34.85,570.56c0,1.56-.3,2.88-.88,3.95-.59,1.07-1.5,1.88-2.72,2.43-1.22,.55-2.77,.83-4.65,.83s-3.45-.27-4.67-.83c-1.21-.55-2.11-1.37-2.7-2.45-.59-1.08-.89-2.43-.89-4.05,0-1.48,.29-2.72,.85-3.72,.57-1,1.42-1.75,2.55-2.26,1.13-.51,2.54-.77,4.24-.77h1.26v11.34c1.26-.04,2.29-.22,3.1-.55,.81-.33,1.4-.83,1.77-1.49,.37-.66,.56-1.49,.56-2.49,0-.68-.09-1.28-.26-1.79s-.41-.94-.73-1.29-.7-.62-1.14-.79c-.44-.18-.92-.28-1.44-.3v-2.58c.84,.02,1.62,.18,2.32,.48,.71,.3,1.32,.74,1.82,1.32,.5,.58,.89,1.29,1.17,2.13s.42,1.8,.42,2.88Zm-9.57,4.41v-8.55c-.88,0-1.62,.1-2.22,.3s-1.09,.49-1.47,.85c-.38,.37-.66,.8-.83,1.29-.17,.49-.25,1.05-.25,1.67,0,.92,.17,1.7,.51,2.34,.34,.64,.86,1.13,1.56,1.47,.7,.34,1.6,.55,2.7,.63Z"/><path d="M34.85,554.9c0,1.08-.11,2.03-.33,2.85-.22,.82-.54,1.5-.96,2.04s-.92,.95-1.5,1.23-1.24,.42-1.98,.42h-.28c-.09,0-.17,0-.23-.03v-2.61c.08,.02,.15,.03,.21,.03h.18c.7-.02,1.25-.21,1.65-.55s.68-.83,.84-1.46,.24-1.31,.24-2.07c0-.66-.09-1.27-.26-1.83-.17-.56-.43-1-.78-1.33s-.79-.5-1.34-.5c-.66,0-1.16,.22-1.51,.65-.35,.43-.62,1-.83,1.7-.2,.7-.41,1.43-.63,2.19-.18,.64-.38,1.28-.6,1.92-.22,.64-.49,1.21-.81,1.73-.32,.51-.74,.92-1.25,1.23-.51,.31-1.15,.46-1.93,.46-.7,0-1.32-.14-1.86-.43-.54-.29-1-.71-1.38-1.25s-.67-1.2-.85-1.96-.29-1.62-.29-2.57c0-1,.11-1.88,.33-2.62s.53-1.38,.93-1.88c.4-.5,.86-.87,1.37-1.11,.51-.24,1.05-.36,1.63-.36h.35c.11,0,.19,.01,.25,.03v2.58h-.33c-.4,0-.78,.1-1.15,.31s-.67,.57-.9,1.08c-.23,.51-.34,1.21-.34,2.12,0,.58,.04,1.08,.13,1.5,.09,.42,.23,.77,.42,1.05,.19,.28,.41,.49,.66,.63,.25,.14,.54,.21,.85,.21,.52,0,.92-.17,1.2-.51,.28-.34,.51-.79,.69-1.37,.18-.57,.38-1.18,.6-1.84,.2-.7,.41-1.42,.62-2.15,.21-.73,.48-1.4,.79-2.01,.32-.61,.76-1.1,1.3-1.47,.55-.37,1.28-.55,2.18-.55,.84,0,1.57,.16,2.19,.48,.62,.32,1.13,.78,1.53,1.37,.4,.59,.7,1.28,.89,2.07,.19,.79,.28,1.65,.28,2.59Z"/><path d="M15.74,545.12h-2.94v-2.64h2.94v2.64Zm18.75,0h-15.78v-2.64h15.78v2.64Z"/><path d="M39.96,535.7c0,.76-.16,1.46-.46,2.1-.31,.64-.76,1.15-1.34,1.53-.58,.38-1.27,.57-2.07,.57-.88,0-1.61-.25-2.19-.74-.58-.49-1.01-1.07-1.29-1.75-.24,.5-.58,.89-1,1.17-.43,.28-.9,.42-1.42,.42-.7,0-1.29-.25-1.77-.76-.48-.51-.8-1.13-.96-1.88-.44,.68-1.01,1.21-1.7,1.61-.69,.39-1.46,.58-2.29,.58-1,0-1.88-.24-2.64-.71s-1.36-1.19-1.8-2.16-.66-2.16-.66-3.55c0-.64,.04-1.24,.14-1.8,.09-.56,.23-1.06,.43-1.5-.32-.7-.73-1.22-1.23-1.57-.5-.35-1.01-.57-1.53-.65v-2.61c.6,0,1.17,.14,1.7,.41,.53,.27,.97,.64,1.32,1.09,.35,.46,.58,1.02,.71,1.68,.48-.5,1.02-.88,1.62-1.12,.6-.25,1.25-.38,1.95-.38,1,0,1.88,.24,2.65,.71,.77,.47,1.38,1.17,1.82,2.11,.44,.94,.66,2.12,.66,3.54v2.46c0,.54,.11,.98,.32,1.32,.21,.34,.55,.51,1,.51,.4,0,.73-.17,.97-.51,.25-.34,.38-.78,.38-1.32v-6.42c0-1.16,.39-2.11,1.16-2.85,.77-.74,1.75-1.11,2.96-1.11,.86,0,1.63,.22,2.32,.65s1.24,1.03,1.65,1.8c.41,.77,.62,1.67,.62,2.68v6.45Zm-13.35-3.6c0-1.28-.28-2.23-.84-2.85-.56-.62-1.33-.93-2.31-.93s-1.72,.31-2.28,.93c-.56,.62-.84,1.57-.84,2.85s.28,2.23,.84,2.87c.56,.63,1.32,.94,2.28,.94,.62,0,1.17-.14,1.65-.42,.48-.28,.85-.7,1.11-1.26,.26-.56,.39-1.27,.39-2.13Zm11.34,2.85v-5.67c0-.46-.1-.88-.29-1.26-.19-.38-.46-.68-.79-.9-.34-.22-.71-.33-1.11-.33-.68,0-1.22,.2-1.62,.6s-.6,.9-.6,1.5v6.06c0,.64,.21,1.18,.64,1.62,.43,.44,.96,.66,1.57,.66,.66,0,1.19-.22,1.59-.66,.4-.44,.6-.98,.6-1.62Z"/><path d="M34.49,521.69h-15.78v-2.13l2.37-.24v-.21c-.64-.42-1.16-.89-1.56-1.42-.4-.53-.69-1.12-.88-1.77-.19-.65-.29-1.34-.29-2.08,0-1,.17-1.88,.51-2.62s.89-1.34,1.65-1.77c.76-.43,1.79-.64,3.09-.64h10.89v2.64h-10.53c-.66,0-1.2,.08-1.62,.25s-.75,.4-.99,.69c-.24,.29-.41,.64-.51,1.05s-.15,.87-.15,1.37c0,.74,.18,1.44,.54,2.1,.36,.66,.88,1.19,1.56,1.58s1.49,.58,2.43,.58h9.27v2.64Z"/><path d="M34.85,498.5c0,1.56-.3,2.88-.88,3.95-.59,1.07-1.5,1.88-2.72,2.43-1.22,.55-2.77,.83-4.65,.83s-3.45-.27-4.67-.83c-1.21-.55-2.11-1.37-2.7-2.45-.59-1.08-.89-2.43-.89-4.05,0-1.48,.29-2.72,.85-3.72,.57-1,1.42-1.75,2.55-2.26,1.13-.51,2.54-.77,4.24-.77h1.26v11.34c1.26-.04,2.29-.22,3.1-.55,.81-.33,1.4-.83,1.77-1.49,.37-.66,.56-1.49,.56-2.49,0-.68-.09-1.28-.26-1.79s-.41-.94-.73-1.29-.7-.62-1.14-.79c-.44-.18-.92-.28-1.44-.3v-2.58c.84,.02,1.62,.18,2.32,.48,.71,.3,1.32,.74,1.82,1.32,.5,.58,.89,1.29,1.17,2.13s.42,1.8,.42,2.88Zm-9.57,4.41v-8.55c-.88,0-1.62,.1-2.22,.3s-1.09,.49-1.47,.85c-.38,.37-.66,.8-.83,1.29-.17,.49-.25,1.05-.25,1.67,0,.92,.17,1.7,.51,2.34,.34,.64,.86,1.13,1.56,1.47,.7,.34,1.6,.55,2.7,.63Z"/><path d="M34.49,488.36h-15.78v-2.13l2.61-.24v-.21c-.5-.16-.97-.38-1.42-.66s-.82-.66-1.11-1.14c-.29-.48-.43-1.07-.43-1.77,0-.3,.03-.58,.08-.83,.05-.25,.11-.44,.17-.55h2.43v.99c0,.68,.12,1.27,.34,1.75,.23,.49,.56,.9,.98,1.22,.42,.32,.92,.55,1.5,.71,.58,.15,1.2,.22,1.86,.22h8.79v2.64Z"/></g><g><path d="M34.49,424.85H13.91v-7.68c0-2.16,.36-4,1.08-5.52,.72-1.52,1.84-2.68,3.35-3.5,1.51-.81,3.46-1.21,5.87-1.21s4.3,.41,5.82,1.21c1.52,.81,2.65,1.98,3.38,3.5,.73,1.52,1.09,3.36,1.09,5.52v7.68Zm-2.46-2.85v-4.77c0-1.14-.15-2.16-.44-3.06-.29-.9-.73-1.67-1.33-2.31-.6-.64-1.38-1.12-2.33-1.46-.95-.33-2.08-.49-3.4-.49h-.6c-1.36,0-2.51,.16-3.46,.49s-1.73,.81-2.33,1.44-1.04,1.39-1.33,2.29-.43,1.93-.43,3.09v4.77h15.66Z"/><path d="M15.74,403.34h-2.94v-2.64h2.94v2.64Zm18.75,0h-15.78v-2.64h15.78v2.64Z"/><path d="M39.96,393.92c0,.76-.16,1.46-.46,2.1-.31,.64-.76,1.15-1.34,1.53-.58,.38-1.27,.57-2.07,.57-.88,0-1.61-.25-2.19-.74-.58-.49-1.01-1.07-1.29-1.75-.24,.5-.58,.89-1,1.17-.43,.28-.9,.42-1.42,.42-.7,0-1.29-.25-1.77-.76-.48-.51-.8-1.13-.96-1.88-.44,.68-1.01,1.21-1.7,1.61-.69,.39-1.46,.58-2.29,.58-1,0-1.88-.24-2.64-.71s-1.36-1.19-1.8-2.16-.66-2.16-.66-3.55c0-.64,.04-1.24,.14-1.8,.09-.56,.23-1.06,.43-1.5-.32-.7-.73-1.22-1.23-1.57-.5-.35-1.01-.57-1.53-.65v-2.61c.6,0,1.17,.14,1.7,.41,.53,.27,.97,.64,1.32,1.09,.35,.46,.58,1.02,.71,1.68,.48-.5,1.02-.88,1.62-1.12,.6-.25,1.25-.38,1.95-.38,1,0,1.88,.24,2.65,.71,.77,.47,1.38,1.17,1.82,2.11,.44,.94,.66,2.12,.66,3.54v2.46c0,.54,.11,.98,.32,1.32,.21,.34,.55,.51,1,.51,.4,0,.73-.17,.97-.51,.25-.34,.38-.78,.38-1.32v-6.42c0-1.16,.39-2.11,1.16-2.85,.77-.74,1.75-1.11,2.96-1.11,.86,0,1.63,.22,2.32,.65s1.24,1.03,1.65,1.8c.41,.77,.62,1.67,.62,2.68v6.45Zm-13.35-3.6c0-1.28-.28-2.23-.84-2.85-.56-.62-1.33-.93-2.31-.93s-1.72,.31-2.28,.93c-.56,.62-.84,1.57-.84,2.85s.28,2.23,.84,2.87c.56,.63,1.32,.94,2.28,.94,.62,0,1.17-.14,1.65-.42,.48-.28,.85-.7,1.11-1.26,.26-.56,.39-1.27,.39-2.13Zm11.34,2.85v-5.67c0-.46-.1-.88-.29-1.26-.19-.38-.46-.68-.79-.9-.34-.22-.71-.33-1.11-.33-.68,0-1.22,.2-1.62,.6s-.6,.9-.6,1.5v6.06c0,.64,.21,1.18,.64,1.62,.43,.44,.96,.66,1.57,.66,.66,0,1.19-.22,1.59-.66,.4-.44,.6-.98,.6-1.62Z"/><path d="M15.74,379.91h-2.94v-2.64h2.94v2.64Zm18.75,0h-15.78v-2.64h15.78v2.64Z"/><path d="M34.85,369.47c0,.82-.16,1.46-.46,1.92s-.72,.79-1.23,.99c-.51,.2-1.05,.3-1.64,.3h-10.59v2.04h-2.22v-2.1l-4.41-.48v-2.1h4.41v-2.97h2.22v2.97h10.2c.5,0,.88-.09,1.12-.27s.38-.52,.38-1.02v-1.68h1.74c.1,.2,.18,.44,.24,.72,.06,.28,.11,.57,.16,.86s.08,.57,.08,.83Z"/><path d="M34.85,360.29c0,.58-.07,1.16-.21,1.74-.14,.58-.37,1.12-.69,1.62s-.77,.9-1.34,1.2c-.57,.3-1.28,.45-2.14,.45-1.08,0-1.97-.26-2.67-.78-.7-.52-1.25-1.25-1.63-2.17-.39-.93-.66-2.04-.81-3.32-.15-1.28-.22-2.67-.22-4.17h-1.8c-.58,0-1.08,.1-1.5,.3-.42,.2-.74,.55-.97,1.07-.23,.51-.34,1.24-.34,2.17s.12,1.62,.34,2.14c.23,.53,.53,.9,.88,1.11,.36,.21,.76,.32,1.2,.32h.45v2.55c-.1,.02-.2,.03-.3,.03h-.36c-.96,0-1.76-.27-2.41-.8-.65-.53-1.14-1.27-1.47-2.23s-.5-2.06-.5-3.3c0-1.32,.19-2.42,.57-3.32,.38-.89,.92-1.56,1.62-2.01s1.54-.67,2.52-.67h8.55c.38,0,.64-.09,.79-.27,.15-.18,.22-.4,.22-.66v-1.17h1.74c.12,.28,.22,.59,.31,.93s.13,.73,.13,1.17c0,.52-.1,.95-.31,1.29s-.5,.6-.87,.78c-.37,.18-.78,.3-1.25,.36v.21c.5,.36,.94,.82,1.3,1.37,.37,.55,.66,1.17,.86,1.84s.3,1.42,.3,2.22Zm-2.22-.66c0-.64-.1-1.24-.3-1.81-.2-.57-.48-1.08-.85-1.51-.37-.44-.81-.79-1.33-1.05-.52-.26-1.09-.39-1.71-.39h-1.32c0,1.62,.09,3,.27,4.14,.18,1.14,.5,2.02,.96,2.62,.46,.61,1.11,.92,1.95,.92,.54,0,.98-.12,1.32-.36,.34-.24,.59-.58,.76-1.02,.17-.44,.26-.95,.26-1.53Z"/><path d="M34.49,347.9H12.8v-2.64h21.69v2.64Z"/><path d="M34.49,334.37H13.91v-7.68c0-2.16,.36-4,1.08-5.52,.72-1.52,1.84-2.68,3.35-3.5,1.51-.81,3.46-1.21,5.87-1.21s4.3,.41,5.82,1.21c1.52,.81,2.65,1.98,3.38,3.5,.73,1.52,1.09,3.36,1.09,5.52v7.68Zm-2.46-2.85v-4.77c0-1.14-.15-2.16-.44-3.06-.29-.9-.73-1.67-1.33-2.31-.6-.64-1.38-1.12-2.33-1.46-.95-.33-2.08-.49-3.4-.49h-.6c-1.36,0-2.51,.16-3.46,.49s-1.73,.81-2.33,1.44-1.04,1.39-1.33,2.29-.43,1.93-.43,3.09v4.77h15.66Z"/><path d="M34.85,306.56c0,1.56-.3,2.88-.88,3.95-.59,1.07-1.5,1.88-2.72,2.43-1.22,.55-2.77,.83-4.65,.83s-3.45-.27-4.67-.83c-1.21-.55-2.11-1.37-2.7-2.45-.59-1.08-.89-2.43-.89-4.05,0-1.48,.29-2.72,.85-3.72,.57-1,1.42-1.75,2.55-2.26,1.13-.51,2.54-.77,4.24-.77h1.26v11.34c1.26-.04,2.29-.22,3.1-.55,.81-.33,1.4-.83,1.77-1.49,.37-.66,.56-1.49,.56-2.49,0-.68-.09-1.28-.26-1.79s-.41-.94-.73-1.29-.7-.62-1.14-.79c-.44-.18-.92-.28-1.44-.3v-2.58c.84,.02,1.62,.18,2.32,.48,.71,.3,1.32,.74,1.82,1.32,.5,.58,.89,1.29,1.17,2.13s.42,1.8,.42,2.88Zm-9.57,4.41v-8.55c-.88,0-1.62,.1-2.22,.3s-1.09,.49-1.47,.85c-.38,.37-.66,.8-.83,1.29-.17,.49-.25,1.05-.25,1.67,0,.92,.17,1.7,.51,2.34,.34,.64,.86,1.13,1.56,1.47,.7,.34,1.6,.55,2.7,.63Z"/><path d="M34.85,290.9c0,1.08-.11,2.03-.33,2.85-.22,.82-.54,1.5-.96,2.04s-.92,.95-1.5,1.23-1.24,.42-1.98,.42h-.28c-.09,0-.17,0-.23-.03v-2.61c.08,.02,.15,.03,.21,.03h.18c.7-.02,1.25-.21,1.65-.55s.68-.83,.84-1.46,.24-1.31,.24-2.07c0-.66-.09-1.27-.26-1.83-.17-.56-.43-1-.78-1.33s-.79-.5-1.34-.5c-.66,0-1.16,.22-1.51,.65-.35,.43-.62,1-.83,1.7-.2,.7-.41,1.43-.63,2.19-.18,.64-.38,1.28-.6,1.92-.22,.64-.49,1.21-.81,1.73-.32,.51-.74,.92-1.25,1.23-.51,.31-1.15,.46-1.93,.46-.7,0-1.32-.14-1.86-.43-.54-.29-1-.71-1.38-1.25s-.67-1.2-.85-1.96-.29-1.62-.29-2.57c0-1,.11-1.88,.33-2.62s.53-1.38,.93-1.88c.4-.5,.86-.87,1.37-1.11,.51-.24,1.05-.36,1.63-.36h.35c.11,0,.19,.01,.25,.03v2.58h-.33c-.4,0-.78,.1-1.15,.31s-.67,.57-.9,1.08c-.23,.51-.34,1.21-.34,2.12,0,.58,.04,1.08,.13,1.5,.09,.42,.23,.77,.42,1.05,.19,.28,.41,.49,.66,.63,.25,.14,.54,.21,.85,.21,.52,0,.92-.17,1.2-.51,.28-.34,.51-.79,.69-1.37,.18-.57,.38-1.18,.6-1.84,.2-.7,.41-1.42,.62-2.15,.21-.73,.48-1.4,.79-2.01,.32-.61,.76-1.1,1.3-1.47,.55-.37,1.28-.55,2.18-.55,.84,0,1.57,.16,2.19,.48,.62,.32,1.13,.78,1.53,1.37,.4,.59,.7,1.28,.89,2.07,.19,.79,.28,1.65,.28,2.59Z"/><path d="M15.74,281.12h-2.94v-2.64h2.94v2.64Zm18.75,0h-15.78v-2.64h15.78v2.64Z"/><path d="M39.96,271.7c0,.76-.16,1.46-.46,2.1-.31,.64-.76,1.15-1.34,1.53-.58,.38-1.27,.57-2.07,.57-.88,0-1.61-.25-2.19-.74-.58-.49-1.01-1.07-1.29-1.75-.24,.5-.58,.89-1,1.17-.43,.28-.9,.42-1.42,.42-.7,0-1.29-.25-1.77-.76-.48-.51-.8-1.13-.96-1.88-.44,.68-1.01,1.21-1.7,1.61-.69,.39-1.46,.58-2.29,.58-1,0-1.88-.24-2.64-.71s-1.36-1.19-1.8-2.16-.66-2.16-.66-3.55c0-.64,.04-1.24,.14-1.8,.09-.56,.23-1.06,.43-1.5-.32-.7-.73-1.22-1.23-1.57-.5-.35-1.01-.57-1.53-.65v-2.61c.6,0,1.17,.14,1.7,.41,.53,.27,.97,.64,1.32,1.09,.35,.46,.58,1.02,.71,1.68,.48-.5,1.02-.88,1.62-1.12,.6-.25,1.25-.38,1.95-.38,1,0,1.88,.24,2.65,.71,.77,.47,1.38,1.17,1.82,2.11,.44,.94,.66,2.12,.66,3.54v2.46c0,.54,.11,.98,.32,1.32,.21,.34,.55,.51,1,.51,.4,0,.73-.17,.97-.51,.25-.34,.38-.78,.38-1.32v-6.42c0-1.16,.39-2.11,1.16-2.85,.77-.74,1.75-1.11,2.96-1.11,.86,0,1.63,.22,2.32,.65s1.24,1.03,1.65,1.8c.41,.77,.62,1.67,.62,2.68v6.45Zm-13.35-3.6c0-1.28-.28-2.23-.84-2.85-.56-.62-1.33-.93-2.31-.93s-1.72,.31-2.28,.93c-.56,.62-.84,1.57-.84,2.85s.28,2.23,.84,2.87c.56,.63,1.32,.94,2.28,.94,.62,0,1.17-.14,1.65-.42,.48-.28,.85-.7,1.11-1.26,.26-.56,.39-1.27,.39-2.13Zm11.34,2.85v-5.67c0-.46-.1-.88-.29-1.26-.19-.38-.46-.68-.79-.9-.34-.22-.71-.33-1.11-.33-.68,0-1.22,.2-1.62,.6s-.6,.9-.6,1.5v6.06c0,.64,.21,1.18,.64,1.62,.43,.44,.96,.66,1.57,.66,.66,0,1.19-.22,1.59-.66,.4-.44,.6-.98,.6-1.62Z"/><path d="M34.49,257.69h-15.78v-2.13l2.37-.24v-.21c-.64-.42-1.16-.89-1.56-1.42-.4-.53-.69-1.12-.88-1.77-.19-.65-.29-1.34-.29-2.08,0-1,.17-1.88,.51-2.62s.89-1.34,1.65-1.77c.76-.43,1.79-.64,3.09-.64h10.89v2.64h-10.53c-.66,0-1.2,.08-1.62,.25s-.75,.4-.99,.69c-.24,.29-.41,.64-.51,1.05s-.15,.87-.15,1.37c0,.74,.18,1.44,.54,2.1,.36,.66,.88,1.19,1.56,1.58s1.49,.58,2.43,.58h9.27v2.64Z"/><path d="M34.85,234.5c0,1.56-.3,2.88-.88,3.95-.59,1.07-1.5,1.88-2.72,2.43-1.22,.55-2.77,.83-4.65,.83s-3.45-.27-4.67-.83c-1.21-.55-2.11-1.37-2.7-2.45-.59-1.08-.89-2.43-.89-4.05,0-1.48,.29-2.72,.85-3.72,.57-1,1.42-1.75,2.55-2.26,1.13-.51,2.54-.77,4.24-.77h1.26v11.34c1.26-.04,2.29-.22,3.1-.55,.81-.33,1.4-.83,1.77-1.49,.37-.66,.56-1.49,.56-2.49,0-.68-.09-1.28-.26-1.79s-.41-.94-.73-1.29-.7-.62-1.14-.79c-.44-.18-.92-.28-1.44-.3v-2.58c.84,.02,1.62,.18,2.32,.48,.71,.3,1.32,.74,1.82,1.32,.5,.58,.89,1.29,1.17,2.13s.42,1.8,.42,2.88Zm-9.57,4.41v-8.55c-.88,0-1.62,.1-2.22,.3s-1.09,.49-1.47,.85c-.38,.37-.66,.8-.83,1.29-.17,.49-.25,1.05-.25,1.67,0,.92,.17,1.7,.51,2.34,.34,.64,.86,1.13,1.56,1.47,.7,.34,1.6,.55,2.7,.63Z"/><path d="M34.49,224.36h-15.78v-2.13l2.61-.24v-.21c-.5-.16-.97-.38-1.42-.66s-.82-.66-1.11-1.14c-.29-.48-.43-1.07-.43-1.77,0-.3,.03-.58,.08-.83,.05-.25,.11-.44,.17-.55h2.43v.99c0,.68,.12,1.27,.34,1.75,.23,.49,.56,.9,.98,1.22,.42,.32,.92,.55,1.5,.71,.58,.15,1.2,.22,1.86,.22h8.79v2.64Z"/></g><g><path d="M34.49,164.85H13.91v-7.68c0-2.16,.36-4,1.08-5.52,.72-1.52,1.84-2.68,3.35-3.5,1.51-.81,3.46-1.21,5.87-1.21s4.3,.41,5.82,1.21c1.52,.81,2.65,1.98,3.38,3.5,.73,1.52,1.09,3.36,1.09,5.52v7.68Zm-2.46-2.85v-4.77c0-1.14-.15-2.16-.44-3.06-.29-.9-.73-1.67-1.33-2.31-.6-.64-1.38-1.12-2.33-1.46-.95-.33-2.08-.49-3.4-.49h-.6c-1.36,0-2.51,.16-3.46,.49s-1.73,.81-2.33,1.44-1.04,1.39-1.33,2.29-.43,1.93-.43,3.09v4.77h15.66Z"/><path d="M15.74,143.34h-2.94v-2.64h2.94v2.64Zm18.75,0h-15.78v-2.64h15.78v2.64Z"/><path d="M39.96,133.92c0,.76-.16,1.46-.46,2.1-.31,.64-.76,1.15-1.34,1.53-.58,.38-1.27,.57-2.07,.57-.88,0-1.61-.25-2.19-.74-.58-.49-1.01-1.07-1.29-1.75-.24,.5-.58,.89-1,1.17-.43,.28-.9,.42-1.42,.42-.7,0-1.29-.25-1.77-.76-.48-.51-.8-1.13-.96-1.88-.44,.68-1.01,1.21-1.7,1.61-.69,.39-1.46,.58-2.29,.58-1,0-1.88-.24-2.64-.71s-1.36-1.19-1.8-2.16-.66-2.16-.66-3.55c0-.64,.04-1.24,.14-1.8,.09-.56,.23-1.06,.43-1.5-.32-.7-.73-1.22-1.23-1.57-.5-.35-1.01-.57-1.53-.65v-2.61c.6,0,1.17,.14,1.7,.41,.53,.27,.97,.64,1.32,1.09,.35,.46,.58,1.02,.71,1.68,.48-.5,1.02-.88,1.62-1.12,.6-.25,1.25-.38,1.95-.38,1,0,1.88,.24,2.65,.71,.77,.47,1.38,1.17,1.82,2.11,.44,.94,.66,2.12,.66,3.54v2.46c0,.54,.11,.98,.32,1.32,.21,.34,.55,.51,1,.51,.4,0,.73-.17,.97-.51,.25-.34,.38-.78,.38-1.32v-6.42c0-1.16,.39-2.11,1.16-2.85,.77-.74,1.75-1.11,2.96-1.11,.86,0,1.63,.22,2.32,.65s1.24,1.03,1.65,1.8c.41,.77,.62,1.67,.62,2.68v6.45Zm-13.35-3.6c0-1.28-.28-2.23-.84-2.85-.56-.62-1.33-.93-2.31-.93s-1.72,.31-2.28,.93c-.56,.62-.84,1.57-.84,2.85s.28,2.23,.84,2.87c.56,.63,1.32,.94,2.28,.94,.62,0,1.17-.14,1.65-.42,.48-.28,.85-.7,1.11-1.26,.26-.56,.39-1.27,.39-2.13Zm11.34,2.85v-5.67c0-.46-.1-.88-.29-1.26-.19-.38-.46-.68-.79-.9-.34-.22-.71-.33-1.11-.33-.68,0-1.22,.2-1.62,.6s-.6,.9-.6,1.5v6.06c0,.64,.21,1.18,.64,1.62,.43,.44,.96,.66,1.57,.66,.66,0,1.19-.22,1.59-.66,.4-.44,.6-.98,.6-1.62Z"/><path d="M15.74,119.91h-2.94v-2.64h2.94v2.64Zm18.75,0h-15.78v-2.64h15.78v2.64Z"/><path d="M34.85,109.47c0,.82-.16,1.46-.46,1.92s-.72,.79-1.23,.99c-.51,.2-1.05,.3-1.64,.3h-10.59v2.04h-2.22v-2.1l-4.41-.48v-2.1h4.41v-2.97h2.22v2.97h10.2c.5,0,.88-.09,1.12-.27s.38-.52,.38-1.02v-1.68h1.74c.1,.2,.18,.44,.24,.72,.06,.28,.11,.57,.16,.86s.08,.57,.08,.83Z"/><path d="M34.85,100.29c0,.58-.07,1.16-.21,1.74-.14,.58-.37,1.12-.69,1.62s-.77,.9-1.34,1.2c-.57,.3-1.28,.45-2.14,.45-1.08,0-1.97-.26-2.67-.78-.7-.52-1.25-1.25-1.63-2.17-.39-.93-.66-2.04-.81-3.32-.15-1.28-.22-2.67-.22-4.17h-1.8c-.58,0-1.08,.1-1.5,.3-.42,.2-.74,.55-.97,1.07-.23,.51-.34,1.24-.34,2.17s.12,1.62,.34,2.14c.23,.53,.53,.9,.88,1.11,.36,.21,.76,.32,1.2,.32h.45v2.55c-.1,.02-.2,.03-.3,.03h-.36c-.96,0-1.76-.27-2.41-.8-.65-.53-1.14-1.27-1.47-2.23s-.5-2.06-.5-3.3c0-1.32,.19-2.42,.57-3.32,.38-.89,.92-1.56,1.62-2.01s1.54-.67,2.52-.67h8.55c.38,0,.64-.09,.79-.27,.15-.18,.22-.4,.22-.66v-1.17h1.74c.12,.28,.22,.59,.31,.93s.13,.73,.13,1.17c0,.52-.1,.95-.31,1.29s-.5,.6-.87,.78c-.37,.18-.78,.3-1.25,.36v.21c.5,.36,.94,.82,1.3,1.37,.37,.55,.66,1.17,.86,1.84s.3,1.42,.3,2.22Zm-2.22-.66c0-.64-.1-1.24-.3-1.81-.2-.57-.48-1.08-.85-1.51-.37-.44-.81-.79-1.33-1.05-.52-.26-1.09-.39-1.71-.39h-1.32c0,1.62,.09,3,.27,4.14,.18,1.14,.5,2.02,.96,2.62,.46,.61,1.11,.92,1.95,.92,.54,0,.98-.12,1.32-.36,.34-.24,.59-.58,.76-1.02,.17-.44,.26-.95,.26-1.53Z"/><path d="M34.49,87.9H12.8v-2.64h21.69v2.64Z"/><path d="M34.49,74.37H13.91v-7.68c0-2.16,.36-4,1.08-5.52,.72-1.52,1.84-2.68,3.35-3.5,1.51-.81,3.46-1.21,5.87-1.21s4.3,.41,5.82,1.21c1.52,.81,2.65,1.98,3.38,3.5,.73,1.52,1.09,3.36,1.09,5.52v7.68Zm-2.46-2.85v-4.77c0-1.14-.15-2.16-.44-3.06-.29-.9-.73-1.67-1.33-2.31-.6-.64-1.38-1.12-2.33-1.46-.95-.33-2.08-.49-3.4-.49h-.6c-1.36,0-2.51,.16-3.46,.49s-1.73,.81-2.33,1.44-1.04,1.39-1.33,2.29-.43,1.93-.43,3.09v4.77h15.66Z"/><path d="M34.85,46.56c0,1.56-.3,2.88-.88,3.95-.59,1.07-1.5,1.88-2.72,2.43-1.22,.55-2.77,.83-4.65,.83s-3.45-.27-4.67-.83c-1.21-.55-2.11-1.37-2.7-2.45-.59-1.08-.89-2.43-.89-4.05,0-1.48,.29-2.72,.85-3.72,.57-1,1.42-1.75,2.55-2.26,1.13-.51,2.54-.77,4.24-.77h1.26v11.34c1.26-.04,2.29-.22,3.1-.55,.81-.33,1.4-.83,1.77-1.49,.37-.66,.56-1.49,.56-2.49,0-.68-.09-1.28-.26-1.79s-.41-.94-.73-1.29-.7-.62-1.14-.79c-.44-.18-.92-.28-1.44-.3v-2.58c.84,.02,1.62,.18,2.32,.48,.71,.3,1.32,.74,1.82,1.32,.5,.58,.89,1.29,1.17,2.13s.42,1.8,.42,2.88Zm-9.57,4.41v-8.55c-.88,0-1.62,.1-2.22,.3s-1.09,.49-1.47,.85c-.38,.37-.66,.8-.83,1.29-.17,.49-.25,1.05-.25,1.67,0,.92,.17,1.7,.51,2.34,.34,.64,.86,1.13,1.56,1.47,.7,.34,1.6,.55,2.7,.63Z"/><path d="M34.85,30.9c0,1.08-.11,2.03-.33,2.85-.22,.82-.54,1.5-.96,2.04s-.92,.95-1.5,1.23-1.24,.42-1.98,.42h-.28c-.09,0-.17,0-.23-.03v-2.61c.08,.02,.15,.03,.21,.03h.18c.7-.02,1.25-.21,1.65-.55s.68-.83,.84-1.46,.24-1.31,.24-2.07c0-.66-.09-1.27-.26-1.83-.17-.56-.43-1-.78-1.33s-.79-.5-1.34-.5c-.66,0-1.16,.22-1.51,.65-.35,.43-.62,1-.83,1.7-.2,.7-.41,1.43-.63,2.19-.18,.64-.38,1.28-.6,1.92-.22,.64-.49,1.21-.81,1.73-.32,.51-.74,.92-1.25,1.23-.51,.31-1.15,.46-1.93,.46-.7,0-1.32-.14-1.86-.43-.54-.29-1-.71-1.38-1.25s-.67-1.2-.85-1.96-.29-1.62-.29-2.57c0-1,.11-1.88,.33-2.62s.53-1.38,.93-1.88c.4-.5,.86-.87,1.37-1.11,.51-.24,1.05-.36,1.63-.36h.35c.11,0,.19,.01,.25,.03v2.58h-.33c-.4,0-.78,.1-1.15,.31s-.67,.57-.9,1.08c-.23,.51-.34,1.21-.34,2.12,0,.58,.04,1.08,.13,1.5,.09,.42,.23,.77,.42,1.05,.19,.28,.41,.49,.66,.63,.25,.14,.54,.21,.85,.21,.52,0,.92-.17,1.2-.51,.28-.34,.51-.79,.69-1.37,.18-.57,.38-1.18,.6-1.84,.2-.7,.41-1.42,.62-2.15,.21-.73,.48-1.4,.79-2.01,.32-.61,.76-1.1,1.3-1.47,.55-.37,1.28-.55,2.18-.55,.84,0,1.57,.16,2.19,.48,.62,.32,1.13,.78,1.53,1.37,.4,.59,.7,1.28,.89,2.07,.19,.79,.28,1.65,.28,2.59Z"/><path d="M15.74,21.12h-2.94v-2.64h2.94v2.64Zm18.75,0h-15.78v-2.64h15.78v2.64Z"/><path d="M39.96,11.7c0,.76-.16,1.46-.46,2.1-.31,.64-.76,1.15-1.34,1.53-.58,.38-1.27,.57-2.07,.57-.88,0-1.61-.25-2.19-.74-.58-.49-1.01-1.07-1.29-1.75-.24,.5-.58,.89-1,1.17-.43,.28-.9,.42-1.42,.42-.7,0-1.29-.25-1.77-.76-.48-.51-.8-1.13-.96-1.88-.44,.68-1.01,1.21-1.7,1.61-.69,.39-1.46,.58-2.29,.58-1,0-1.88-.24-2.64-.71s-1.36-1.19-1.8-2.16-.66-2.16-.66-3.55c0-.64,.04-1.24,.14-1.8,.09-.56,.23-1.06,.43-1.5-.32-.7-.73-1.22-1.23-1.57-.5-.35-1.01-.57-1.53-.65V0c.6,0,1.17,.14,1.7,.41,.53,.27,.97,.64,1.32,1.09,.35,.46,.58,1.02,.71,1.68,.48-.5,1.02-.88,1.62-1.12,.6-.25,1.25-.38,1.95-.38,1,0,1.88,.24,2.65,.71,.77,.47,1.38,1.17,1.82,2.11,.44,.94,.66,2.12,.66,3.54v2.46c0,.54,.11,.98,.32,1.32,.21,.34,.55,.51,1,.51,.4,0,.73-.17,.97-.51,.25-.34,.38-.78,.38-1.32V4.08c0-1.16,.39-2.11,1.16-2.85,.77-.74,1.75-1.11,2.96-1.11,.86,0,1.63,.22,2.32,.65s1.24,1.03,1.65,1.8c.41,.77,.62,1.67,.62,2.68v6.45Zm-13.35-3.6c0-1.28-.28-2.23-.84-2.85-.56-.62-1.33-.93-2.31-.93s-1.72,.31-2.28,.93c-.56,.62-.84,1.57-.84,2.85s.28,2.23,.84,2.87c.56,.63,1.32,.94,2.28,.94,.62,0,1.17-.14,1.65-.42,.48-.28,.85-.7,1.11-1.26,.26-.56,.39-1.27,.39-2.13Zm11.34,2.85V5.28c0-.46-.1-.88-.29-1.26-.19-.38-.46-.68-.79-.9-.34-.22-.71-.33-1.11-.33-.68,0-1.22,.2-1.62,.6s-.6,.9-.6,1.5v6.06c0,.64,.21,1.18,.64,1.62,.43,.44,.96,.66,1.57,.66,.66,0,1.19-.22,1.59-.66,.4-.44,.6-.98,.6-1.62Z"/></g><g><path d="M624.23,30.68V10.1h7.68c2.16,0,4,.36,5.52,1.08,1.52,.72,2.68,1.83,3.5,3.35,.81,1.51,1.21,3.46,1.21,5.86s-.41,4.3-1.21,5.82c-.81,1.52-1.98,2.65-3.5,3.38-1.52,.73-3.36,1.1-5.52,1.1h-7.68Zm2.85-2.46h4.77c1.14,0,2.16-.15,3.06-.44,.9-.29,1.67-.73,2.31-1.33,.64-.6,1.12-1.38,1.46-2.33,.33-.95,.49-2.08,.49-3.4v-.6c0-1.36-.16-2.51-.49-3.46-.33-.95-.81-1.73-1.44-2.33s-1.39-1.04-2.29-1.33c-.9-.29-1.93-.44-3.09-.44h-4.77v15.66Z"/><path d="M645.74,11.93v-2.94h2.64v2.94h-2.64Zm0,18.75V14.9h2.64v15.78h-2.64Z"/><path d="M655.16,36.14c-.76,0-1.46-.16-2.1-.46-.64-.31-1.15-.76-1.53-1.33-.38-.58-.57-1.27-.57-2.07,0-.88,.25-1.61,.74-2.19,.49-.58,1.07-1.01,1.75-1.29-.5-.24-.89-.57-1.17-1-.28-.43-.42-.9-.42-1.42,0-.7,.25-1.29,.76-1.77s1.13-.8,1.88-.96c-.68-.44-1.21-1.01-1.61-1.7-.39-.69-.58-1.46-.58-2.29,0-1,.24-1.88,.71-2.64,.47-.76,1.19-1.36,2.16-1.8s2.16-.66,3.55-.66c.64,0,1.24,.04,1.8,.14,.56,.09,1.06,.24,1.5,.44,.7-.32,1.22-.73,1.57-1.23,.35-.5,.57-1.01,.65-1.53h2.61c0,.6-.14,1.17-.41,1.7-.27,.53-.64,.97-1.09,1.32-.46,.35-1.02,.58-1.68,.71,.5,.48,.88,1.02,1.12,1.62,.25,.6,.38,1.25,.38,1.95,0,1-.24,1.89-.71,2.66s-1.17,1.38-2.11,1.81c-.94,.44-2.12,.66-3.54,.66h-2.46c-.54,0-.98,.1-1.32,.31-.34,.21-.51,.55-.51,1.01,0,.4,.17,.73,.51,.97,.34,.25,.78,.38,1.32,.38h6.42c1.16,0,2.11,.39,2.85,1.16,.74,.77,1.11,1.75,1.11,2.96,0,.86-.22,1.63-.65,2.32s-1.03,1.24-1.8,1.65c-.77,.41-1.67,.61-2.68,.61h-6.45Zm.75-2.01h5.67c.46,0,.88-.1,1.26-.29,.38-.19,.68-.46,.9-.79,.22-.34,.33-.71,.33-1.11,0-.68-.2-1.22-.6-1.62s-.9-.6-1.5-.6h-6.06c-.64,0-1.18,.22-1.62,.65-.44,.43-.66,.95-.66,1.57,0,.66,.22,1.19,.66,1.59,.44,.4,.98,.6,1.62,.6Zm2.85-11.34c1.28,0,2.23-.28,2.85-.84,.62-.56,.93-1.33,.93-2.31s-.31-1.72-.93-2.28c-.62-.56-1.57-.84-2.85-.84s-2.23,.28-2.87,.84c-.63,.56-.94,1.32-.94,2.28,0,.62,.14,1.17,.42,1.65,.28,.48,.7,.85,1.26,1.11,.56,.26,1.27,.39,2.13,.39Z"/><path d="M669.17,11.93v-2.94h2.64v2.94h-2.64Zm0,18.75V14.9h2.64v15.78h-2.64Z"/><path d="M679.61,31.04c-.82,0-1.46-.15-1.92-.46s-.79-.72-.99-1.23c-.2-.51-.3-1.05-.3-1.64v-10.59h-2.04v-2.22h2.1l.48-4.41h2.1v4.41h2.97v2.22h-2.97v10.2c0,.5,.09,.88,.27,1.12s.52,.38,1.02,.38h1.68v1.74c-.2,.1-.44,.18-.72,.24-.28,.06-.57,.11-.86,.17-.29,.05-.57,.07-.83,.07Z"/><path d="M688.79,31.04c-.58,0-1.16-.07-1.74-.21-.58-.14-1.12-.37-1.62-.69-.5-.32-.9-.77-1.2-1.33s-.45-1.28-.45-2.15c0-1.08,.26-1.97,.78-2.67,.52-.7,1.25-1.25,2.17-1.64,.93-.39,2.04-.66,3.32-.81,1.28-.15,2.67-.23,4.17-.23v-1.8c0-.58-.1-1.08-.3-1.5-.2-.42-.55-.74-1.07-.97-.51-.23-1.24-.35-2.17-.35s-1.62,.12-2.14,.35c-.53,.23-.9,.52-1.11,.88s-.32,.76-.32,1.2v.45h-2.55c-.02-.1-.03-.2-.03-.3v-.36c0-.96,.27-1.77,.8-2.42,.53-.65,1.27-1.14,2.23-1.47s2.06-.5,3.3-.5c1.32,0,2.42,.19,3.32,.57,.89,.38,1.56,.92,2.01,1.62,.45,.7,.67,1.54,.67,2.52v8.55c0,.38,.09,.65,.27,.79s.4,.23,.66,.23h1.17v1.74c-.28,.12-.59,.23-.93,.31-.34,.09-.73,.14-1.17,.14-.52,0-.95-.1-1.29-.31s-.6-.5-.78-.87c-.18-.37-.3-.78-.36-1.25h-.21c-.36,.5-.82,.94-1.37,1.31s-1.17,.66-1.84,.85-1.42,.3-2.22,.3Zm.66-2.22c.64,0,1.24-.1,1.81-.3,.57-.2,1.08-.48,1.51-.85,.44-.37,.79-.81,1.05-1.33,.26-.52,.39-1.09,.39-1.71v-1.32c-1.62,0-3,.09-4.14,.27-1.14,.18-2.02,.5-2.62,.96-.61,.46-.92,1.11-.92,1.95,0,.54,.12,.98,.36,1.32,.24,.34,.58,.6,1.02,.76,.44,.17,.95,.26,1.53,.26Z"/><path d="M701.18,30.68V8.99h2.64V30.68h-2.64Z"/><path d="M714.71,30.68V10.1h7.68c2.16,0,4,.36,5.52,1.08,1.52,.72,2.68,1.83,3.5,3.35,.81,1.51,1.21,3.46,1.21,5.86s-.41,4.3-1.21,5.82c-.81,1.52-1.98,2.65-3.5,3.38-1.52,.73-3.36,1.1-5.52,1.1h-7.68Zm2.85-2.46h4.77c1.14,0,2.16-.15,3.06-.44,.9-.29,1.67-.73,2.31-1.33,.64-.6,1.12-1.38,1.46-2.33,.33-.95,.49-2.08,.49-3.4v-.6c0-1.36-.16-2.51-.49-3.46-.33-.95-.81-1.73-1.44-2.33s-1.39-1.04-2.29-1.33c-.9-.29-1.93-.44-3.09-.44h-4.77v15.66Z"/><path d="M742.52,31.04c-1.56,0-2.88-.3-3.95-.88-1.07-.59-1.88-1.5-2.43-2.72-.55-1.22-.83-2.77-.83-4.65s.27-3.45,.83-4.67c.55-1.21,1.37-2.11,2.45-2.7,1.08-.59,2.43-.89,4.05-.89,1.48,0,2.72,.29,3.72,.85,1,.57,1.75,1.42,2.26,2.55,.51,1.13,.77,2.55,.77,4.24v1.26h-11.34c.04,1.26,.22,2.29,.55,3.1s.83,1.4,1.49,1.77c.66,.37,1.49,.56,2.49,.56,.68,0,1.28-.08,1.79-.26,.51-.17,.94-.41,1.29-.73,.35-.32,.62-.7,.79-1.14,.18-.44,.28-.92,.3-1.44h2.58c-.02,.84-.18,1.62-.48,2.33s-.74,1.32-1.32,1.81c-.58,.5-1.29,.89-2.13,1.17s-1.8,.42-2.88,.42Zm-4.41-9.57h8.55c0-.88-.1-1.62-.3-2.22-.2-.6-.49-1.09-.85-1.47-.37-.38-.8-.65-1.29-.83-.49-.17-1.05-.25-1.67-.25-.92,0-1.7,.17-2.34,.51-.64,.34-1.13,.86-1.47,1.56-.34,.7-.55,1.6-.63,2.7Z"/></g><g><path d="M717.66,96.25h20.58v7.68c0,2.16-.36,4-1.08,5.52-.72,1.52-1.84,2.68-3.35,3.5-1.51,.81-3.46,1.21-5.87,1.21s-4.3-.41-5.82-1.21c-1.52-.81-2.65-1.98-3.38-3.5-.73-1.52-1.09-3.36-1.09-5.52v-7.68Zm2.46,2.85v4.77c0,1.14,.15,2.16,.44,3.06,.29,.9,.73,1.67,1.33,2.31,.6,.64,1.38,1.12,2.33,1.46,.95,.33,2.08,.49,3.4,.49h.6c1.36,0,2.51-.16,3.46-.49s1.73-.81,2.33-1.44,1.04-1.39,1.33-2.29,.43-1.93,.43-3.09v-4.77h-15.66Z"/><path d="M717.66,117.76h15.78v2.64h-15.78v-2.64Zm18.75,0h2.94v2.64h-2.94v-2.64Z"/><path d="M712.2,127.18c0-.76,.16-1.46,.46-2.1,.31-.64,.76-1.15,1.34-1.53,.58-.38,1.27-.57,2.07-.57,.88,0,1.61,.25,2.19,.74,.58,.49,1.01,1.07,1.29,1.75,.24-.5,.58-.89,1-1.17,.43-.28,.9-.42,1.42-.42,.7,0,1.29,.25,1.77,.76,.48,.51,.8,1.13,.96,1.88,.44-.68,1.01-1.21,1.7-1.61,.69-.39,1.46-.58,2.29-.58,1,0,1.88,.24,2.64,.71s1.36,1.19,1.8,2.16,.66,2.16,.66,3.55c0,.64-.04,1.24-.14,1.8-.09,.56-.23,1.06-.43,1.5,.32,.7,.73,1.22,1.23,1.57,.5,.35,1.01,.57,1.53,.65v2.61c-.6,0-1.17-.14-1.7-.41-.53-.27-.97-.64-1.32-1.09-.35-.46-.58-1.02-.71-1.68-.48,.5-1.02,.88-1.62,1.12-.6,.25-1.25,.38-1.95,.38-1,0-1.88-.24-2.65-.71-.77-.47-1.38-1.17-1.82-2.11-.44-.94-.66-2.12-.66-3.54v-2.46c0-.54-.11-.98-.32-1.32-.21-.34-.55-.51-1-.51-.4,0-.73,.17-.97,.51-.25,.34-.38,.78-.38,1.32v6.42c0,1.16-.39,2.11-1.16,2.85-.77,.74-1.75,1.11-2.96,1.11-.86,0-1.63-.22-2.32-.65s-1.24-1.03-1.65-1.8c-.41-.77-.62-1.67-.62-2.68v-6.45Zm2.01,.75v5.67c0,.46,.1,.88,.29,1.26,.19,.38,.46,.68,.79,.9,.34,.22,.71,.33,1.11,.33,.68,0,1.22-.2,1.62-.6s.6-.9,.6-1.5v-6.06c0-.64-.21-1.18-.64-1.62-.43-.44-.96-.66-1.57-.66-.66,0-1.19,.22-1.59,.66-.4,.44-.6,.98-.6,1.62Zm11.34,2.85c0,1.28,.28,2.23,.84,2.85,.56,.62,1.33,.93,2.31,.93s1.72-.31,2.28-.93c.56-.62,.84-1.57,.84-2.85s-.28-2.23-.84-2.87c-.56-.63-1.32-.94-2.28-.94-.62,0-1.17,.14-1.65,.42-.48,.28-.85,.7-1.11,1.26-.26,.56-.39,1.27-.39,2.13Z"/><path d="M717.66,141.19h15.78v2.64h-15.78v-2.64Zm18.75,0h2.94v2.64h-2.94v-2.64Z"/><path d="M717.3,151.63c0-.82,.16-1.46,.46-1.92s.72-.79,1.23-.99c.51-.2,1.05-.3,1.64-.3h10.59v-2.04h2.22v2.1l4.41,.48v2.1h-4.41v2.97h-2.22v-2.97h-10.2c-.5,0-.88,.09-1.12,.27s-.38,.52-.38,1.02v1.68h-1.74c-.1-.2-.18-.44-.24-.72-.06-.28-.11-.57-.16-.86s-.08-.57-.08-.83Z"/><path d="M717.3,160.81c0-.58,.07-1.16,.21-1.74,.14-.58,.37-1.12,.69-1.62s.77-.9,1.34-1.2c.57-.3,1.28-.45,2.14-.45,1.08,0,1.97,.26,2.67,.78,.7,.52,1.25,1.25,1.63,2.17,.39,.93,.66,2.04,.81,3.32,.15,1.28,.22,2.67,.22,4.17h1.8c.58,0,1.08-.1,1.5-.3,.42-.2,.74-.55,.97-1.07,.23-.51,.34-1.24,.34-2.17s-.12-1.62-.34-2.14c-.23-.53-.53-.9-.88-1.11-.36-.21-.76-.32-1.2-.32h-.45v-2.55c.1-.02,.2-.03,.3-.03h.36c.96,0,1.76,.27,2.41,.8,.65,.53,1.14,1.27,1.47,2.23s.5,2.06,.5,3.3c0,1.32-.19,2.42-.57,3.32-.38,.89-.92,1.56-1.62,2.01s-1.54,.67-2.52,.67h-8.55c-.38,0-.64,.09-.79,.27-.15,.18-.22,.4-.22,.66v1.17h-1.74c-.12-.28-.22-.59-.31-.93s-.13-.73-.13-1.17c0-.52,.1-.95,.31-1.29s.5-.6,.87-.78c.37-.18,.78-.3,1.25-.36v-.21c-.5-.36-.94-.82-1.3-1.37-.37-.55-.66-1.17-.86-1.84s-.3-1.42-.3-2.22Zm2.22,.66c0,.64,.1,1.24,.3,1.81,.2,.57,.48,1.08,.85,1.51,.37,.44,.81,.79,1.33,1.05,.52,.26,1.09,.39,1.71,.39h1.32c0-1.62-.09-3-.27-4.14-.18-1.14-.5-2.02-.96-2.62-.46-.61-1.11-.92-1.95-.92-.54,0-.98,.12-1.32,.36-.34,.24-.59,.58-.76,1.02-.17,.44-.26,.95-.26,1.53Z"/><path d="M717.66,173.2h21.69v2.64h-21.69v-2.64Z"/><path d="M717.66,186.73h20.58v7.68c0,2.16-.36,4-1.08,5.52-.72,1.52-1.84,2.68-3.35,3.5-1.51,.81-3.46,1.21-5.87,1.21s-4.3-.41-5.82-1.21c-1.52-.81-2.65-1.98-3.38-3.5-.73-1.52-1.09-3.36-1.09-5.52v-7.68Zm2.46,2.85v4.77c0,1.14,.15,2.16,.44,3.06,.29,.9,.73,1.67,1.33,2.31,.6,.64,1.38,1.12,2.33,1.46,.95,.33,2.08,.49,3.4,.49h.6c1.36,0,2.51-.16,3.46-.49s1.73-.81,2.33-1.44,1.04-1.39,1.33-2.29,.43-1.93,.43-3.09v-4.77h-15.66Z"/><path d="M717.3,214.54c0-1.56,.3-2.88,.88-3.95,.59-1.07,1.5-1.88,2.72-2.43,1.22-.55,2.77-.83,4.65-.83s3.45,.27,4.67,.83c1.21,.55,2.11,1.37,2.7,2.45,.59,1.08,.89,2.43,.89,4.05,0,1.48-.29,2.72-.85,3.72-.57,1-1.42,1.75-2.55,2.26-1.13,.51-2.54,.77-4.24,.77h-1.26v-11.34c-1.26,.04-2.29,.22-3.1,.55-.81,.33-1.4,.83-1.77,1.49-.37,.66-.56,1.49-.56,2.49,0,.68,.09,1.28,.26,1.79s.41,.94,.73,1.29,.7,.62,1.14,.79c.44,.18,.92,.28,1.44,.3v2.58c-.84-.02-1.62-.18-2.32-.48-.71-.3-1.32-.74-1.82-1.32-.5-.58-.89-1.29-1.17-2.13s-.42-1.8-.42-2.88Zm9.57-4.41v8.55c.88,0,1.62-.1,2.22-.3s1.09-.49,1.47-.85c.38-.37,.66-.8,.83-1.29,.17-.49,.25-1.05,.25-1.67,0-.92-.17-1.7-.51-2.34-.34-.64-.86-1.13-1.56-1.47-.7-.34-1.6-.55-2.7-.63Z"/><path d="M717.3,230.2c0-1.08,.11-2.03,.33-2.85,.22-.82,.54-1.5,.96-2.04s.92-.95,1.5-1.23,1.24-.42,1.98-.42h.28c.09,0,.17,0,.23,.03v2.61c-.08-.02-.15-.03-.21-.03h-.18c-.7,.02-1.25,.21-1.65,.55s-.68,.83-.84,1.46-.24,1.31-.24,2.07c0,.66,.09,1.27,.26,1.83,.17,.56,.43,1,.78,1.33s.79,.5,1.34,.5c.66,0,1.16-.22,1.51-.65,.35-.43,.62-1,.83-1.7,.2-.7,.41-1.43,.63-2.19,.18-.64,.38-1.28,.6-1.92,.22-.64,.49-1.21,.81-1.73,.32-.51,.74-.92,1.25-1.23,.51-.31,1.15-.46,1.93-.46,.7,0,1.32,.14,1.86,.43,.54,.29,1,.71,1.38,1.25s.67,1.2,.85,1.96,.29,1.62,.29,2.57c0,1-.11,1.88-.33,2.62s-.53,1.38-.93,1.88c-.4,.5-.86,.87-1.37,1.11-.51,.24-1.05,.36-1.63,.36h-.35c-.11,0-.19-.01-.25-.03v-2.58h.33c.4,0,.78-.1,1.15-.31s.67-.57,.9-1.08c.23-.51,.34-1.21,.34-2.12,0-.58-.04-1.08-.13-1.5-.09-.42-.23-.77-.42-1.05-.19-.28-.41-.49-.66-.63-.25-.14-.54-.21-.85-.21-.52,0-.92,.17-1.2,.51-.28,.34-.51,.79-.69,1.37-.18,.57-.38,1.18-.6,1.84-.2,.7-.41,1.42-.62,2.15-.21,.73-.48,1.4-.79,2.01-.32,.61-.76,1.1-1.3,1.47-.55,.37-1.28,.55-2.18,.55-.84,0-1.57-.16-2.19-.48-.62-.32-1.13-.78-1.53-1.37-.4-.59-.7-1.28-.89-2.07-.19-.79-.28-1.65-.28-2.59Z"/><path d="M717.66,239.98h15.78v2.64h-15.78v-2.64Zm18.75,0h2.94v2.64h-2.94v-2.64Z"/><path d="M712.2,249.4c0-.76,.16-1.46,.46-2.1,.31-.64,.76-1.15,1.34-1.53,.58-.38,1.27-.57,2.07-.57,.88,0,1.61,.25,2.19,.74,.58,.49,1.01,1.07,1.29,1.75,.24-.5,.58-.89,1-1.17,.43-.28,.9-.42,1.42-.42,.7,0,1.29,.25,1.77,.76,.48,.51,.8,1.13,.96,1.88,.44-.68,1.01-1.21,1.7-1.61,.69-.39,1.46-.58,2.29-.58,1,0,1.88,.24,2.64,.71s1.36,1.19,1.8,2.16,.66,2.16,.66,3.55c0,.64-.04,1.24-.14,1.8-.09,.56-.23,1.06-.43,1.5,.32,.7,.73,1.22,1.23,1.57,.5,.35,1.01,.57,1.53,.65v2.61c-.6,0-1.17-.14-1.7-.41-.53-.27-.97-.64-1.32-1.09-.35-.46-.58-1.02-.71-1.68-.48,.5-1.02,.88-1.62,1.12-.6,.25-1.25,.38-1.95,.38-1,0-1.88-.24-2.65-.71-.77-.47-1.38-1.17-1.82-2.11-.44-.94-.66-2.12-.66-3.54v-2.46c0-.54-.11-.98-.32-1.32-.21-.34-.55-.51-1-.51-.4,0-.73,.17-.97,.51-.25,.34-.38,.78-.38,1.32v6.42c0,1.16-.39,2.11-1.16,2.85-.77,.74-1.75,1.11-2.96,1.11-.86,0-1.63-.22-2.32-.65s-1.24-1.03-1.65-1.8c-.41-.77-.62-1.67-.62-2.68v-6.45Zm2.01,.75v5.67c0,.46,.1,.88,.29,1.26,.19,.38,.46,.68,.79,.9,.34,.22,.71,.33,1.11,.33,.68,0,1.22-.2,1.62-.6s.6-.9,.6-1.5v-6.06c0-.64-.21-1.18-.64-1.62-.43-.44-.96-.66-1.57-.66-.66,0-1.19,.22-1.59,.66-.4,.44-.6,.98-.6,1.62Zm11.34,2.85c0,1.28,.28,2.23,.84,2.85,.56,.62,1.33,.93,2.31,.93s1.72-.31,2.28-.93c.56-.62,.84-1.57,.84-2.85s-.28-2.23-.84-2.87c-.56-.63-1.32-.94-2.28-.94-.62,0-1.17,.14-1.65,.42-.48,.28-.85,.7-1.11,1.26-.26,.56-.39,1.27-.39,2.13Z"/><path d="M717.66,263.41h15.78v2.13l-2.37,.24v.21c.64,.42,1.16,.89,1.56,1.42,.4,.53,.69,1.12,.88,1.77,.19,.65,.29,1.34,.29,2.08,0,1-.17,1.88-.51,2.62s-.89,1.34-1.65,1.77c-.76,.43-1.79,.64-3.09,.64h-10.89v-2.64h10.53c.66,0,1.2-.08,1.62-.25s.75-.4,.99-.69c.24-.29,.41-.64,.51-1.05s.15-.87,.15-1.37c0-.74-.18-1.44-.54-2.1-.36-.66-.88-1.19-1.56-1.58s-1.49-.58-2.43-.58h-9.27v-2.64Z"/><path d="M717.3,286.6c0-1.56,.3-2.88,.88-3.95,.59-1.07,1.5-1.88,2.72-2.43,1.22-.55,2.77-.83,4.65-.83s3.45,.27,4.67,.83c1.21,.55,2.11,1.37,2.7,2.45,.59,1.08,.89,2.43,.89,4.05,0,1.48-.29,2.72-.85,3.72-.57,1-1.42,1.75-2.55,2.26-1.13,.51-2.54,.77-4.24,.77h-1.26v-11.34c-1.26,.04-2.29,.22-3.1,.55-.81,.33-1.4,.83-1.77,1.49-.37,.66-.56,1.49-.56,2.49,0,.68,.09,1.28,.26,1.79s.41,.94,.73,1.29,.7,.62,1.14,.79c.44,.18,.92,.28,1.44,.3v2.58c-.84-.02-1.62-.18-2.32-.48-.71-.3-1.32-.74-1.82-1.32-.5-.58-.89-1.29-1.17-2.13s-.42-1.8-.42-2.88Zm9.57-4.41v8.55c.88,0,1.62-.1,2.22-.3s1.09-.49,1.47-.85c.38-.37,.66-.8,.83-1.29,.17-.49,.25-1.05,.25-1.67,0-.92-.17-1.7-.51-2.34-.34-.64-.86-1.13-1.56-1.47-.7-.34-1.6-.55-2.7-.63Z"/><path d="M717.66,296.74h15.78v2.13l-2.61,.24v.21c.5,.16,.97,.38,1.42,.66s.82,.66,1.11,1.14c.29,.48,.43,1.07,.43,1.77,0,.3-.03,.58-.08,.83-.05,.25-.11,.44-.17,.55h-2.43v-.99c0-.68-.12-1.27-.34-1.75-.23-.49-.56-.9-.98-1.22-.42-.32-.92-.55-1.5-.71-.58-.15-1.2-.22-1.86-.22h-8.79v-2.64Z"/></g><g><path d="M715.66,367.25h20.58v7.68c0,2.16-.36,4-1.08,5.52-.72,1.52-1.84,2.68-3.35,3.5-1.51,.81-3.46,1.21-5.87,1.21s-4.3-.41-5.82-1.21c-1.52-.81-2.65-1.98-3.38-3.5-.73-1.52-1.09-3.36-1.09-5.52v-7.68Zm2.46,2.85v4.77c0,1.14,.15,2.16,.44,3.06,.29,.9,.73,1.67,1.33,2.31,.6,.64,1.38,1.12,2.33,1.46,.95,.33,2.08,.49,3.4,.49h.6c1.36,0,2.51-.16,3.46-.49s1.73-.81,2.33-1.44,1.04-1.39,1.33-2.29,.43-1.93,.43-3.09v-4.77h-15.66Z"/><path d="M715.66,388.76h15.78v2.64h-15.78v-2.64Zm18.75,0h2.94v2.64h-2.94v-2.64Z"/><path d="M710.2,398.18c0-.76,.16-1.46,.46-2.1,.31-.64,.76-1.15,1.34-1.53,.58-.38,1.27-.57,2.07-.57,.88,0,1.61,.25,2.19,.74,.58,.49,1.01,1.07,1.29,1.75,.24-.5,.58-.89,1-1.17,.43-.28,.9-.42,1.42-.42,.7,0,1.29,.25,1.77,.76,.48,.51,.8,1.13,.96,1.88,.44-.68,1.01-1.21,1.7-1.61,.69-.39,1.46-.58,2.29-.58,1,0,1.88,.24,2.64,.71s1.36,1.19,1.8,2.16,.66,2.16,.66,3.55c0,.64-.04,1.24-.14,1.8-.09,.56-.23,1.06-.43,1.5,.32,.7,.73,1.22,1.23,1.57,.5,.35,1.01,.57,1.53,.65v2.61c-.6,0-1.17-.14-1.7-.41-.53-.27-.97-.64-1.32-1.09-.35-.46-.58-1.02-.71-1.68-.48,.5-1.02,.88-1.62,1.12-.6,.25-1.25,.38-1.95,.38-1,0-1.88-.24-2.65-.71-.77-.47-1.38-1.17-1.82-2.11-.44-.94-.66-2.12-.66-3.54v-2.46c0-.54-.11-.98-.32-1.32-.21-.34-.55-.51-1-.51-.4,0-.73,.17-.97,.51-.25,.34-.38,.78-.38,1.32v6.42c0,1.16-.39,2.11-1.16,2.85-.77,.74-1.75,1.11-2.96,1.11-.86,0-1.63-.22-2.32-.65s-1.24-1.03-1.65-1.8c-.41-.77-.62-1.67-.62-2.68v-6.45Zm2.01,.75v5.67c0,.46,.1,.88,.29,1.26,.19,.38,.46,.68,.79,.9,.34,.22,.71,.33,1.11,.33,.68,0,1.22-.2,1.62-.6s.6-.9,.6-1.5v-6.06c0-.64-.21-1.18-.64-1.62-.43-.44-.96-.66-1.57-.66-.66,0-1.19,.22-1.59,.66-.4,.44-.6,.98-.6,1.62Zm11.34,2.85c0,1.28,.28,2.23,.84,2.85,.56,.62,1.33,.93,2.31,.93s1.72-.31,2.28-.93c.56-.62,.84-1.57,.84-2.85s-.28-2.23-.84-2.87c-.56-.63-1.32-.94-2.28-.94-.62,0-1.17,.14-1.65,.42-.48,.28-.85,.7-1.11,1.26-.26,.56-.39,1.27-.39,2.13Z"/><path d="M715.66,412.19h15.78v2.64h-15.78v-2.64Zm18.75,0h2.94v2.64h-2.94v-2.64Z"/><path d="M715.3,422.63c0-.82,.16-1.46,.46-1.92s.72-.79,1.23-.99c.51-.2,1.05-.3,1.64-.3h10.59v-2.04h2.22v2.1l4.41,.48v2.1h-4.41v2.97h-2.22v-2.97h-10.2c-.5,0-.88,.09-1.12,.27s-.38,.52-.38,1.02v1.68h-1.74c-.1-.2-.18-.44-.24-.72-.06-.28-.11-.57-.16-.86s-.08-.57-.08-.83Z"/><path d="M715.3,431.81c0-.58,.07-1.16,.21-1.74,.14-.58,.37-1.12,.69-1.62s.77-.9,1.34-1.2c.57-.3,1.28-.45,2.14-.45,1.08,0,1.97,.26,2.67,.78,.7,.52,1.25,1.25,1.63,2.17,.39,.93,.66,2.04,.81,3.32,.15,1.28,.22,2.67,.22,4.17h1.8c.58,0,1.08-.1,1.5-.3,.42-.2,.74-.55,.97-1.07,.23-.51,.34-1.24,.34-2.17s-.12-1.62-.34-2.14c-.23-.53-.53-.9-.88-1.11-.36-.21-.76-.32-1.2-.32h-.45v-2.55c.1-.02,.2-.03,.3-.03h.36c.96,0,1.76,.27,2.41,.8,.65,.53,1.14,1.27,1.47,2.23s.5,2.06,.5,3.3c0,1.32-.19,2.42-.57,3.32-.38,.89-.92,1.56-1.62,2.01s-1.54,.67-2.52,.67h-8.55c-.38,0-.64,.09-.79,.27-.15,.18-.22,.4-.22,.66v1.17h-1.74c-.12-.28-.22-.59-.31-.93s-.13-.73-.13-1.17c0-.52,.1-.95,.31-1.29s.5-.6,.87-.78c.37-.18,.78-.3,1.25-.36v-.21c-.5-.36-.94-.82-1.3-1.37-.37-.55-.66-1.17-.86-1.84s-.3-1.42-.3-2.22Zm2.22,.66c0,.64,.1,1.24,.3,1.81,.2,.57,.48,1.08,.85,1.51,.37,.44,.81,.79,1.33,1.05,.52,.26,1.09,.39,1.71,.39h1.32c0-1.62-.09-3-.27-4.14-.18-1.14-.5-2.02-.96-2.62-.46-.61-1.11-.92-1.95-.92-.54,0-.98,.12-1.32,.36-.34,.24-.59,.58-.76,1.02-.17,.44-.26,.95-.26,1.53Z"/><path d="M715.66,444.2h21.69v2.64h-21.69v-2.64Z"/><path d="M715.66,457.73h20.58v7.68c0,2.16-.36,4-1.08,5.52-.72,1.52-1.84,2.68-3.35,3.5-1.51,.81-3.46,1.21-5.87,1.21s-4.3-.41-5.82-1.21c-1.52-.81-2.65-1.98-3.38-3.5-.73-1.52-1.09-3.36-1.09-5.52v-7.68Zm2.46,2.85v4.77c0,1.14,.15,2.16,.44,3.06,.29,.9,.73,1.67,1.33,2.31,.6,.64,1.38,1.12,2.33,1.46,.95,.33,2.08,.49,3.4,.49h.6c1.36,0,2.51-.16,3.46-.49s1.73-.81,2.33-1.44,1.04-1.39,1.33-2.29,.43-1.93,.43-3.09v-4.77h-15.66Z"/><path d="M715.3,485.54c0-1.56,.3-2.88,.88-3.95,.59-1.07,1.5-1.88,2.72-2.43,1.22-.55,2.77-.83,4.65-.83s3.45,.27,4.67,.83c1.21,.55,2.11,1.37,2.7,2.45,.59,1.08,.89,2.43,.89,4.05,0,1.48-.29,2.72-.85,3.72-.57,1-1.42,1.75-2.55,2.26-1.13,.51-2.54,.77-4.24,.77h-1.26v-11.34c-1.26,.04-2.29,.22-3.1,.55-.81,.33-1.4,.83-1.77,1.49-.37,.66-.56,1.49-.56,2.49,0,.68,.09,1.28,.26,1.79s.41,.94,.73,1.29,.7,.62,1.14,.79c.44,.18,.92,.28,1.44,.3v2.58c-.84-.02-1.62-.18-2.32-.48-.71-.3-1.32-.74-1.82-1.32-.5-.58-.89-1.29-1.17-2.13s-.42-1.8-.42-2.88Zm9.57-4.41v8.55c.88,0,1.62-.1,2.22-.3s1.09-.49,1.47-.85c.38-.37,.66-.8,.83-1.29,.17-.49,.25-1.05,.25-1.67,0-.92-.17-1.7-.51-2.34-.34-.64-.86-1.13-1.56-1.47-.7-.34-1.6-.55-2.7-.63Z"/><path d="M715.3,501.2c0-1.08,.11-2.03,.33-2.85,.22-.82,.54-1.5,.96-2.04s.92-.95,1.5-1.23,1.24-.42,1.98-.42h.28c.09,0,.17,0,.23,.03v2.61c-.08-.02-.15-.03-.21-.03h-.18c-.7,.02-1.25,.21-1.65,.55s-.68,.83-.84,1.46-.24,1.31-.24,2.07c0,.66,.09,1.27,.26,1.83,.17,.56,.43,1,.78,1.33s.79,.5,1.34,.5c.66,0,1.16-.22,1.51-.65,.35-.43,.62-1,.83-1.7,.2-.7,.41-1.43,.63-2.19,.18-.64,.38-1.28,.6-1.92,.22-.64,.49-1.21,.81-1.73,.32-.51,.74-.92,1.25-1.23,.51-.31,1.15-.46,1.93-.46,.7,0,1.32,.14,1.86,.43,.54,.29,1,.71,1.38,1.25s.67,1.2,.85,1.96,.29,1.62,.29,2.57c0,1-.11,1.88-.33,2.62s-.53,1.38-.93,1.88c-.4,.5-.86,.87-1.37,1.11-.51,.24-1.05,.36-1.63,.36h-.35c-.11,0-.19-.01-.25-.03v-2.58h.33c.4,0,.78-.1,1.15-.31s.67-.57,.9-1.08c.23-.51,.34-1.21,.34-2.12,0-.58-.04-1.08-.13-1.5-.09-.42-.23-.77-.42-1.05-.19-.28-.41-.49-.66-.63-.25-.14-.54-.21-.85-.21-.52,0-.92,.17-1.2,.51-.28,.34-.51,.79-.69,1.37-.18,.57-.38,1.18-.6,1.84-.2,.7-.41,1.42-.62,2.15-.21,.73-.48,1.4-.79,2.01-.32,.61-.76,1.1-1.3,1.47-.55,.37-1.28,.55-2.18,.55-.84,0-1.57-.16-2.19-.48-.62-.32-1.13-.78-1.53-1.37-.4-.59-.7-1.28-.89-2.07-.19-.79-.28-1.65-.28-2.59Z"/><path d="M715.66,510.98h15.78v2.64h-15.78v-2.64Zm18.75,0h2.94v2.64h-2.94v-2.64Z"/><path d="M710.2,520.4c0-.76,.16-1.46,.46-2.1,.31-.64,.76-1.15,1.34-1.53,.58-.38,1.27-.57,2.07-.57,.88,0,1.61,.25,2.19,.74,.58,.49,1.01,1.07,1.29,1.75,.24-.5,.58-.89,1-1.17,.43-.28,.9-.42,1.42-.42,.7,0,1.29,.25,1.77,.76,.48,.51,.8,1.13,.96,1.88,.44-.68,1.01-1.21,1.7-1.61,.69-.39,1.46-.58,2.29-.58,1,0,1.88,.24,2.64,.71s1.36,1.19,1.8,2.16,.66,2.16,.66,3.55c0,.64-.04,1.24-.14,1.8-.09,.56-.23,1.06-.43,1.5,.32,.7,.73,1.22,1.23,1.57,.5,.35,1.01,.57,1.53,.65v2.61c-.6,0-1.17-.14-1.7-.41-.53-.27-.97-.64-1.32-1.09-.35-.46-.58-1.02-.71-1.68-.48,.5-1.02,.88-1.62,1.12-.6,.25-1.25,.38-1.95,.38-1,0-1.88-.24-2.65-.71-.77-.47-1.38-1.17-1.82-2.11-.44-.94-.66-2.12-.66-3.54v-2.46c0-.54-.11-.98-.32-1.32-.21-.34-.55-.51-1-.51-.4,0-.73,.17-.97,.51-.25,.34-.38,.78-.38,1.32v6.42c0,1.16-.39,2.11-1.16,2.85-.77,.74-1.75,1.11-2.96,1.11-.86,0-1.63-.22-2.32-.65s-1.24-1.03-1.65-1.8c-.41-.77-.62-1.67-.62-2.68v-6.45Zm2.01,.75v5.67c0,.46,.1,.88,.29,1.26,.19,.38,.46,.68,.79,.9,.34,.22,.71,.33,1.11,.33,.68,0,1.22-.2,1.62-.6s.6-.9,.6-1.5v-6.06c0-.64-.21-1.18-.64-1.62-.43-.44-.96-.66-1.57-.66-.66,0-1.19,.22-1.59,.66-.4,.44-.6,.98-.6,1.62Zm11.34,2.85c0,1.28,.28,2.23,.84,2.85,.56,.62,1.33,.93,2.31,.93s1.72-.31,2.28-.93c.56-.62,.84-1.57,.84-2.85s-.28-2.23-.84-2.87c-.56-.63-1.32-.94-2.28-.94-.62,0-1.17,.14-1.65,.42-.48,.28-.85,.7-1.11,1.26-.26,.56-.39,1.27-.39,2.13Z"/><path d="M715.66,534.41h15.78v2.13l-2.37,.24v.21c.64,.42,1.16,.89,1.56,1.42,.4,.53,.69,1.12,.88,1.77,.19,.65,.29,1.34,.29,2.08,0,1-.17,1.88-.51,2.62s-.89,1.34-1.65,1.77c-.76,.43-1.79,.64-3.09,.64h-10.89v-2.64h10.53c.66,0,1.2-.08,1.62-.25s.75-.4,.99-.69c.24-.29,.41-.64,.51-1.05s.15-.87,.15-1.37c0-.74-.18-1.44-.54-2.1-.36-.66-.88-1.19-1.56-1.58s-1.49-.58-2.43-.58h-9.27v-2.64Z"/><path d="M715.3,557.6c0-1.56,.3-2.88,.88-3.95,.59-1.07,1.5-1.88,2.72-2.43,1.22-.55,2.77-.83,4.65-.83s3.45,.27,4.67,.83c1.21,.55,2.11,1.37,2.7,2.45,.59,1.08,.89,2.43,.89,4.05,0,1.48-.29,2.72-.85,3.72-.57,1-1.42,1.75-2.55,2.26-1.13,.51-2.54,.77-4.24,.77h-1.26v-11.34c-1.26,.04-2.29,.22-3.1,.55-.81,.33-1.4,.83-1.77,1.49-.37,.66-.56,1.49-.56,2.49,0,.68,.09,1.28,.26,1.79s.41,.94,.73,1.29,.7,.62,1.14,.79c.44,.18,.92,.28,1.44,.3v2.58c-.84-.02-1.62-.18-2.32-.48-.71-.3-1.32-.74-1.82-1.32-.5-.58-.89-1.29-1.17-2.13s-.42-1.8-.42-2.88Zm9.57-4.41v8.55c.88,0,1.62-.1,2.22-.3s1.09-.49,1.47-.85c.38-.37,.66-.8,.83-1.29,.17-.49,.25-1.05,.25-1.67,0-.92-.17-1.7-.51-2.34-.34-.64-.86-1.13-1.56-1.47-.7-.34-1.6-.55-2.7-.63Z"/><path d="M715.66,567.74h15.78v2.13l-2.61,.24v.21c.5,.16,.97,.38,1.42,.66s.82,.66,1.11,1.14c.29,.48,.43,1.07,.43,1.77,0,.3-.03,.58-.08,.83-.05,.25-.11,.44-.17,.55h-2.43v-.99c0-.68-.12-1.27-.34-1.75-.23-.49-.56-.9-.98-1.22-.42-.32-.92-.55-1.5-.71-.58-.15-1.2-.22-1.86-.22h-8.79v-2.64Z"/></g><g><path d="M715.66,635.25h20.58v7.68c0,2.16-.36,4-1.08,5.52-.72,1.52-1.84,2.68-3.35,3.5-1.51,.81-3.46,1.21-5.87,1.21s-4.3-.41-5.82-1.21c-1.52-.81-2.65-1.98-3.38-3.5-.73-1.52-1.09-3.36-1.09-5.52v-7.68Zm2.46,2.85v4.77c0,1.14,.15,2.16,.44,3.06,.29,.9,.73,1.67,1.33,2.31,.6,.64,1.38,1.12,2.33,1.46,.95,.33,2.08,.49,3.4,.49h.6c1.36,0,2.51-.16,3.46-.49s1.73-.81,2.33-1.44,1.04-1.39,1.33-2.29,.43-1.93,.43-3.09v-4.77h-15.66Z"/><path d="M715.66,656.76h15.78v2.64h-15.78v-2.64Zm18.75,0h2.94v2.64h-2.94v-2.64Z"/><path d="M710.2,666.18c0-.76,.16-1.46,.46-2.1,.31-.64,.76-1.15,1.34-1.53,.58-.38,1.27-.57,2.07-.57,.88,0,1.61,.25,2.19,.74,.58,.49,1.01,1.07,1.29,1.75,.24-.5,.58-.89,1-1.17,.43-.28,.9-.42,1.42-.42,.7,0,1.29,.25,1.77,.76,.48,.51,.8,1.13,.96,1.88,.44-.68,1.01-1.21,1.7-1.61,.69-.39,1.46-.58,2.29-.58,1,0,1.88,.24,2.64,.71s1.36,1.19,1.8,2.16,.66,2.16,.66,3.55c0,.64-.04,1.24-.14,1.8-.09,.56-.23,1.06-.43,1.5,.32,.7,.73,1.22,1.23,1.57,.5,.35,1.01,.57,1.53,.65v2.61c-.6,0-1.17-.14-1.7-.41-.53-.27-.97-.64-1.32-1.09-.35-.46-.58-1.02-.71-1.68-.48,.5-1.02,.88-1.62,1.12-.6,.25-1.25,.38-1.95,.38-1,0-1.88-.24-2.65-.71-.77-.47-1.38-1.17-1.82-2.11-.44-.94-.66-2.12-.66-3.54v-2.46c0-.54-.11-.98-.32-1.32-.21-.34-.55-.51-1-.51-.4,0-.73,.17-.97,.51-.25,.34-.38,.78-.38,1.32v6.42c0,1.16-.39,2.11-1.16,2.85-.77,.74-1.75,1.11-2.96,1.11-.86,0-1.63-.22-2.32-.65s-1.24-1.03-1.65-1.8c-.41-.77-.62-1.67-.62-2.68v-6.45Zm2.01,.75v5.67c0,.46,.1,.88,.29,1.26,.19,.38,.46,.68,.79,.9,.34,.22,.71,.33,1.11,.33,.68,0,1.22-.2,1.62-.6s.6-.9,.6-1.5v-6.06c0-.64-.21-1.18-.64-1.62-.43-.44-.96-.66-1.57-.66-.66,0-1.19,.22-1.59,.66-.4,.44-.6,.98-.6,1.62Zm11.34,2.85c0,1.28,.28,2.23,.84,2.85,.56,.62,1.33,.93,2.31,.93s1.72-.31,2.28-.93c.56-.62,.84-1.57,.84-2.85s-.28-2.23-.84-2.87c-.56-.63-1.32-.94-2.28-.94-.62,0-1.17,.14-1.65,.42-.48,.28-.85,.7-1.11,1.26-.26,.56-.39,1.27-.39,2.13Z"/><path d="M715.66,680.19h15.78v2.64h-15.78v-2.64Zm18.75,0h2.94v2.64h-2.94v-2.64Z"/><path d="M715.3,690.63c0-.82,.16-1.46,.46-1.92s.72-.79,1.23-.99c.51-.2,1.05-.3,1.64-.3h10.59v-2.04h2.22v2.1l4.41,.48v2.1h-4.41v2.97h-2.22v-2.97h-10.2c-.5,0-.88,.09-1.12,.27s-.38,.52-.38,1.02v1.68h-1.74c-.1-.2-.18-.44-.24-.72-.06-.28-.11-.57-.16-.86s-.08-.57-.08-.83Z"/><path d="M715.3,699.81c0-.58,.07-1.16,.21-1.74,.14-.58,.37-1.12,.69-1.62s.77-.9,1.34-1.2c.57-.3,1.28-.45,2.14-.45,1.08,0,1.97,.26,2.67,.78,.7,.52,1.25,1.25,1.63,2.17,.39,.93,.66,2.04,.81,3.32,.15,1.28,.22,2.67,.22,4.17h1.8c.58,0,1.08-.1,1.5-.3,.42-.2,.74-.55,.97-1.07,.23-.51,.34-1.24,.34-2.17s-.12-1.62-.34-2.14c-.23-.53-.53-.9-.88-1.11-.36-.21-.76-.32-1.2-.32h-.45v-2.55c.1-.02,.2-.03,.3-.03h.36c.96,0,1.76,.27,2.41,.8,.65,.53,1.14,1.27,1.47,2.23s.5,2.06,.5,3.3c0,1.32-.19,2.42-.57,3.32-.38,.89-.92,1.56-1.62,2.01s-1.54,.67-2.52,.67h-8.55c-.38,0-.64,.09-.79,.27-.15,.18-.22,.4-.22,.66v1.17h-1.74c-.12-.28-.22-.59-.31-.93s-.13-.73-.13-1.17c0-.52,.1-.95,.31-1.29s.5-.6,.87-.78c.37-.18,.78-.3,1.25-.36v-.21c-.5-.36-.94-.82-1.3-1.37-.37-.55-.66-1.17-.86-1.84s-.3-1.42-.3-2.22Zm2.22,.66c0,.64,.1,1.24,.3,1.81,.2,.57,.48,1.08,.85,1.51,.37,.44,.81,.79,1.33,1.05,.52,.26,1.09,.39,1.71,.39h1.32c0-1.62-.09-3-.27-4.14-.18-1.14-.5-2.02-.96-2.62-.46-.61-1.11-.92-1.95-.92-.54,0-.98,.12-1.32,.36-.34,.24-.59,.58-.76,1.02-.17,.44-.26,.95-.26,1.53Z"/><path d="M715.66,712.2h21.69v2.64h-21.69v-2.64Z"/><path d="M715.66,725.73h20.58v7.68c0,2.16-.36,4-1.08,5.52-.72,1.52-1.84,2.68-3.35,3.5-1.51,.81-3.46,1.21-5.87,1.21s-4.3-.41-5.82-1.21c-1.52-.81-2.65-1.98-3.38-3.5-.73-1.52-1.09-3.36-1.09-5.52v-7.68Zm2.46,2.85v4.77c0,1.14,.15,2.16,.44,3.06,.29,.9,.73,1.67,1.33,2.31,.6,.64,1.38,1.12,2.33,1.46,.95,.33,2.08,.49,3.4,.49h.6c1.36,0,2.51-.16,3.46-.49s1.73-.81,2.33-1.44,1.04-1.39,1.33-2.29,.43-1.93,.43-3.09v-4.77h-15.66Z"/><path d="M715.3,753.54c0-1.56,.3-2.88,.88-3.95,.59-1.07,1.5-1.88,2.72-2.43,1.22-.55,2.77-.83,4.65-.83s3.45,.27,4.67,.83c1.21,.55,2.11,1.37,2.7,2.45,.59,1.08,.89,2.43,.89,4.05,0,1.48-.29,2.72-.85,3.72-.57,1-1.42,1.75-2.55,2.26-1.13,.51-2.54,.77-4.24,.77h-1.26v-11.34c-1.26,.04-2.29,.22-3.1,.55-.81,.33-1.4,.83-1.77,1.49-.37,.66-.56,1.49-.56,2.49,0,.68,.09,1.28,.26,1.79s.41,.94,.73,1.29,.7,.62,1.14,.79c.44,.18,.92,.28,1.44,.3v2.58c-.84-.02-1.62-.18-2.32-.48-.71-.3-1.32-.74-1.82-1.32-.5-.58-.89-1.29-1.17-2.13s-.42-1.8-.42-2.88Zm9.57-4.41v8.55c.88,0,1.62-.1,2.22-.3s1.09-.49,1.47-.85c.38-.37,.66-.8,.83-1.29,.17-.49,.25-1.05,.25-1.67,0-.92-.17-1.7-.51-2.34-.34-.64-.86-1.13-1.56-1.47-.7-.34-1.6-.55-2.7-.63Z"/><path d="M715.3,769.2c0-1.08,.11-2.03,.33-2.85,.22-.82,.54-1.5,.96-2.04s.92-.95,1.5-1.23,1.24-.42,1.98-.42h.28c.09,0,.17,0,.23,.03v2.61c-.08-.02-.15-.03-.21-.03h-.18c-.7,.02-1.25,.21-1.65,.55s-.68,.83-.84,1.46-.24,1.31-.24,2.07c0,.66,.09,1.27,.26,1.83,.17,.56,.43,1,.78,1.33s.79,.5,1.34,.5c.66,0,1.16-.22,1.51-.65,.35-.43,.62-1,.83-1.7,.2-.7,.41-1.43,.63-2.19,.18-.64,.38-1.28,.6-1.92,.22-.64,.49-1.21,.81-1.73,.32-.51,.74-.92,1.25-1.23,.51-.31,1.15-.46,1.93-.46,.7,0,1.32,.14,1.86,.43,.54,.29,1,.71,1.38,1.25s.67,1.2,.85,1.96,.29,1.62,.29,2.57c0,1-.11,1.88-.33,2.62s-.53,1.38-.93,1.88c-.4,.5-.86,.87-1.37,1.11-.51,.24-1.05,.36-1.63,.36h-.35c-.11,0-.19-.01-.25-.03v-2.58h.33c.4,0,.78-.1,1.15-.31s.67-.57,.9-1.08c.23-.51,.34-1.21,.34-2.12,0-.58-.04-1.08-.13-1.5-.09-.42-.23-.77-.42-1.05-.19-.28-.41-.49-.66-.63-.25-.14-.54-.21-.85-.21-.52,0-.92,.17-1.2,.51-.28,.34-.51,.79-.69,1.37-.18,.57-.38,1.18-.6,1.84-.2,.7-.41,1.42-.62,2.15-.21,.73-.48,1.4-.79,2.01-.32,.61-.76,1.1-1.3,1.47-.55,.37-1.28,.55-2.18,.55-.84,0-1.57-.16-2.19-.48-.62-.32-1.13-.78-1.53-1.37-.4-.59-.7-1.28-.89-2.07-.19-.79-.28-1.65-.28-2.59Z"/><path d="M715.66,778.98h15.78v2.64h-15.78v-2.64Zm18.75,0h2.94v2.64h-2.94v-2.64Z"/><path d="M710.2,788.4c0-.76,.16-1.46,.46-2.1,.31-.64,.76-1.15,1.34-1.53,.58-.38,1.27-.57,2.07-.57,.88,0,1.61,.25,2.19,.74,.58,.49,1.01,1.07,1.29,1.75,.24-.5,.58-.89,1-1.17,.43-.28,.9-.42,1.42-.42,.7,0,1.29,.25,1.77,.76,.48,.51,.8,1.13,.96,1.88,.44-.68,1.01-1.21,1.7-1.61,.69-.39,1.46-.58,2.29-.58,1,0,1.88,.24,2.64,.71s1.36,1.19,1.8,2.16,.66,2.16,.66,3.55c0,.64-.04,1.24-.14,1.8-.09,.56-.23,1.06-.43,1.5,.32,.7,.73,1.22,1.23,1.57,.5,.35,1.01,.57,1.53,.65v2.61c-.6,0-1.17-.14-1.7-.41-.53-.27-.97-.64-1.32-1.09-.35-.46-.58-1.02-.71-1.68-.48,.5-1.02,.88-1.62,1.12-.6,.25-1.25,.38-1.95,.38-1,0-1.88-.24-2.65-.71-.77-.47-1.38-1.17-1.82-2.11-.44-.94-.66-2.12-.66-3.54v-2.46c0-.54-.11-.98-.32-1.32-.21-.34-.55-.51-1-.51-.4,0-.73,.17-.97,.51-.25,.34-.38,.78-.38,1.32v6.42c0,1.16-.39,2.11-1.16,2.85-.77,.74-1.75,1.11-2.96,1.11-.86,0-1.63-.22-2.32-.65s-1.24-1.03-1.65-1.8c-.41-.77-.62-1.67-.62-2.68v-6.45Zm2.01,.75v5.67c0,.46,.1,.88,.29,1.26,.19,.38,.46,.68,.79,.9,.34,.22,.71,.33,1.11,.33,.68,0,1.22-.2,1.62-.6s.6-.9,.6-1.5v-6.06c0-.64-.21-1.18-.64-1.62-.43-.44-.96-.66-1.57-.66-.66,0-1.19,.22-1.59,.66-.4,.44-.6,.98-.6,1.62Zm11.34,2.85c0,1.28,.28,2.23,.84,2.85,.56,.62,1.33,.93,2.31,.93s1.72-.31,2.28-.93c.56-.62,.84-1.57,.84-2.85s-.28-2.23-.84-2.87c-.56-.63-1.32-.94-2.28-.94-.62,0-1.17,.14-1.65,.42-.48,.28-.85,.7-1.11,1.26-.26,.56-.39,1.27-.39,2.13Z"/></g></g></svg>